<svg xmlns="http://www.w3.org/2000/svg" width="30.702" height="26.653" viewBox="0 0 30.702 26.653"><defs><style>.a{fill:#a97e85;}</style></defs><g transform="translate(30.702 26.653) rotate(180)"><path class="a" d="M1,0H13.3V8.841a30.311,30.311,0,0,1-.922,8.4A12.77,12.77,0,0,1,8.906,22.78a17.843,17.843,0,0,1-6.5,3.872L0,21.531a10.2,10.2,0,0,0,5.293-3.411A10.184,10.184,0,0,0,6.956,12.3H1Z"/><path class="a" d="M1.007,0H13.3V8.841a29.685,29.685,0,0,1-.942,8.4,12.89,12.89,0,0,1-3.5,5.539,17.831,17.831,0,0,1-6.454,3.872L0,21.531a10.309,10.309,0,0,0,5.273-3.411A9.855,9.855,0,0,0,6.915,12.3H1.007Z" transform="translate(17.398)"/></g></svg>