<svg xmlns="http://www.w3.org/2000/svg" width="43.911" height="43.911" viewBox="0 0 43.911 43.911"><defs><style>.a{fill:#00a490;}</style></defs><path class="a" d="M31.661,14.989a1.715,1.715,0,0,1,0,2.426L20.154,28.922a1.716,1.716,0,0,1-2.426,0L12.25,23.444a1.715,1.715,0,0,1,2.425-2.425l4.265,4.265L29.235,14.989A1.716,1.716,0,0,1,31.661,14.989Zm12.25,6.967A21.955,21.955,0,1,1,21.955,0,21.943,21.943,0,0,1,43.911,21.955Zm-3.431,0A18.525,18.525,0,1,0,21.955,40.48,18.515,18.515,0,0,0,40.48,21.955Zm0,0"/></svg>