<svg xmlns="http://www.w3.org/2000/svg" width="137.31" height="32.752" viewBox="0 0 137.31 32.752"><defs><style>.a{fill:#e61e25;}</style></defs><g transform="translate(-1002.673 -31.346)"><path d="M1028.782,32.23l.735,9.533c0,.513-.14.88-.569.88-1.364,0-1.851-10.16-9.955-10.16-6,0-10.525,6.609-10.525,15.594,0,8.879,3.78,14.431,10.867,14.431a9.418,9.418,0,0,0,6.831-2.821c3.638-3.582,2.586-6.284,3.8-6.284a.615.615,0,0,1,.633.68c0,2.56-2.506,5.891-4.241,7.284a13.485,13.485,0,0,1-8.309,2.731,15.136,15.136,0,0,1-11.265-4.924c-2.671-2.873-4.115-6.54-4.115-11.636,0-4.668,1.222-8.108,4.317-11.268a15.781,15.781,0,0,1,11.465-4.924c4.582,0,7.168,1.68,8.078,1.68,1.164,0,.766-1.449,1.675-1.449C1028.722,31.577,1028.752,31.859,1028.782,32.23Z"/><path d="M1038.279,62.465a3.216,3.216,0,0,1-3.324-3.419c0-1.514.68-2.821,2.642-4.13,1.453-.973,2.7-1.2,4.607-2.227v4.874C1042.2,60.183,1040.926,62.465,1038.279,62.465Zm8.9,1.5c1.9,0,3.98-1.05,3.98-2.3a.381.381,0,0,0-.342-.4c-.456,0-.936,1.2-2.243,1.2-1.6,0-2.018-1.2-2.018-3.078V49.53c0-4.334-1.172-6.411-8.13-6.411-3.643,0-6.909,1.136-6.909,3.615a1.986,1.986,0,0,0,2.013,1.911c2.929,0,1.227-4.531,5.178-4.531,2.133,0,3.526,1.74,3.526,4.929,0,2.766-.935,3.278-6.143,4.1-3.526.568-5.539,2.418-5.539,5.214,0,3.191,2.727,5.354,6.536,5.354a8.173,8.173,0,0,0,5.291-1.908A6.045,6.045,0,0,0,1047.179,63.969Z"/><path d="M1058.072,45.452a11.541,11.541,0,0,1,6.976-2.333c4.882,0,6.814,2.188,6.814,6.258v8.988c0,4.695,3.385,4.1,3.385,4.665,0,.2-.141.287-.568.287h-9.092c-.6,0-.915-.083-.915-.312,0-.54,2.847.025,2.847-4.64v-8.5c0-3.757-1.8-5.266-4.24-5.266-3.613,0-5.207,2.646-5.207,6.43v7.338c0,4.695,3.385,4.1,3.385,4.665,0,.2-.171.287-.594.287h-9.1c-.6,0-.885-.083-.885-.312,0-.54,2.847.025,2.847-4.64V50.172c0-2.385-.14-2.984-.427-3.609-.94-1.966-2.842-1.564-2.842-2.077,0-.256.2-.256,1.307-.456l5.113-.827c.371,0,.569.227.709.655Z"/><path d="M1083.057,62.465a3.221,3.221,0,0,1-3.33-3.419c0-1.514.683-2.821,2.65-4.13,1.449-.973,2.7-1.2,4.608-2.227v4.874C1086.985,60.183,1085.7,62.465,1083.057,62.465Zm8.9,1.5c1.9,0,3.98-1.05,3.98-2.3a.385.385,0,0,0-.343-.4c-.453,0-.94,1.2-2.249,1.2-1.589,0-2.016-1.2-2.016-3.078V49.53c0-4.334-1.163-6.411-8.131-6.411-3.637,0-6.908,1.136-6.908,3.615a1.99,1.99,0,0,0,2.018,1.911c2.928,0,1.222-4.531,5.181-4.531,2.129,0,3.523,1.74,3.523,4.929,0,2.766-.937,3.278-6.144,4.1-3.527.568-5.54,2.418-5.54,5.214,0,3.191,2.728,5.354,6.537,5.354a8.175,8.175,0,0,0,5.292-1.908A6.04,6.04,0,0,0,1091.957,63.969Z"/><path d="M1106.443,62.8c-3.817,0-6.582-3.527-6.582-9.64,0-4.778,2.564-8.673,6.326-8.673,3.667,0,5.062,3.215,5.062,7.593v4.864C1111.249,60.614,1109.6,62.8,1106.443,62.8ZM1105.418,43.3a10.025,10.025,0,0,0-10.328,10.319,10.121,10.121,0,0,0,10.353,10.413,8.4,8.4,0,0,0,5.806-1.936l.256,1.252c.116.483.256.711.74.711l5.685-.711c.8-.116.91-.145.91-.341,0-.429-1.881,0-2.7-2.305a11.106,11.106,0,0,1-.457-3.724v-25.4l-7.707.342c-.509.025-.735.025-.735.338,0,.628,1.364.029,2.872,1.055.71.483,1.138,1.278,1.138,2.873v9.1A9.572,9.572,0,0,0,1105.418,43.3Z"/><path d="M1127.069,62.465a3.2,3.2,0,0,1-3.3-3.419c0-1.514.658-2.821,2.616-4.13,1.453-.973,2.718-1.2,4.646-2.227v4.874C1131.027,60.183,1129.7,62.465,1127.069,62.465Zm8.929,1.5c1.907,0,3.985-1.05,3.985-2.3a.384.384,0,0,0-.342-.4c-.454,0-.941,1.2-2.249,1.2-1.59,0-2.018-1.2-2.018-3.078V49.53c0-4.334-1.167-6.411-8.134-6.411-3.642,0-6.938,1.136-6.938,3.615a1.991,1.991,0,0,0,2.018,1.911c2.927,0,1.218-4.531,5.172-4.531,2.12,0,3.535,1.74,3.535,4.929,0,2.766-.923,3.278-6.121,4.1-3.527.568-5.57,2.418-5.57,5.214,0,3.191,2.727,5.354,6.536,5.354a8.3,8.3,0,0,0,5.326-1.908A6.043,6.043,0,0,0,1136,63.969Z"/><rect class="a" width="4.8" height="9.84" transform="translate(1118.682 31.714)"/><path class="a" d="M1128.479,40.73V38.908c0-.085.086-.141.2-.141l1.855.4a1.569,1.569,0,0,1-.317-.738.564.564,0,0,1,.231-.4l1.659-1.313-.286-.111a.182.182,0,0,1-.142-.2l.286-1.226-.971.2c-.085,0-.14-.085-.2-.2l-.26-.424-.833.936a.172.172,0,0,1-.147.086c-.08,0-.14-.086-.14-.2l.458-2.049-.489.257a1.929,1.929,0,0,1-.286.145c-.052,0-.081-.029-.136-.145l-.625-1.108-.589,1.108c-.06.116-.115.145-.171.145-.026,0-.2-.115-.257-.145l-.483-.257.432,2.078a.162.162,0,0,1-.145.171.164.164,0,0,1-.142-.086l-.8-.936-.281.424c-.087.14-.116.2-.2.2l-.944-.2.286,1.226a.263.263,0,0,1-.141.2l-.312.111,1.675,1.313a.645.645,0,0,1,.231.423c0,.146-.06.287-.316.713l1.812-.4c.12,0,.231.056.231.141V40.73Z"/><rect class="a" width="4.834" height="9.84" transform="translate(1133.327 31.714)"/></g></svg>