<svg xmlns="http://www.w3.org/2000/svg" width="272" height="26.424" viewBox="0 0 272 26.424"><defs><style>.a{fill:#e61e25;}</style></defs><g transform="translate(-31.897 -39.265)"><path d="M100.831,42.24a2.979,2.979,0,0,1,.97,1.912h-1.116a2.122,2.122,0,0,0-2.3-1.766,2.479,2.479,0,0,0-1.976.875,4.041,4.041,0,0,0-.752,2.682,3.95,3.95,0,0,0,.678,2.4,2.352,2.352,0,0,0,2.023.92,2.129,2.129,0,0,0,1.886-.965,3.724,3.724,0,0,0,.512-1.337h1.115A3.843,3.843,0,0,1,100.9,49.2a3.444,3.444,0,0,1-2.672,1.085,3.491,3.491,0,0,1-2.432-.889,4.675,4.675,0,0,1-1.3-3.636,4.689,4.689,0,0,1,.974-3.061,3.539,3.539,0,0,1,2.906-1.3A3.379,3.379,0,0,1,100.831,42.24Z"/><path d="M106.507,46.334a.562.562,0,0,0,.476-.3.893.893,0,0,0,.069-.393.833.833,0,0,0-.375-.761,2.025,2.025,0,0,0-1.074-.236,1.372,1.372,0,0,0-1.144.432,1.417,1.417,0,0,0-.246.712h-.96a1.782,1.782,0,0,1,.735-1.587,3,3,0,0,1,1.64-.447,3.267,3.267,0,0,1,1.757.422,1.418,1.418,0,0,1,.67,1.29v3.526a.461.461,0,0,0,.065.258.315.315,0,0,0,.276.1,1.237,1.237,0,0,0,.154-.009c.057-.005.118-.014.183-.025v.764a2.794,2.794,0,0,1-.367.086,2.551,2.551,0,0,1-.342.017.845.845,0,0,1-.772-.379,1.468,1.468,0,0,1-.177-.569,2.617,2.617,0,0,1-.907.726,2.775,2.775,0,0,1-1.3.307,1.932,1.932,0,0,1-1.4-.52,1.722,1.722,0,0,1-.542-1.3,1.679,1.679,0,0,1,.533-1.328,2.556,2.556,0,0,1,1.4-.58Zm-2.178,2.787a1.218,1.218,0,0,0,.776.256,2.358,2.358,0,0,0,1.056-.251,1.416,1.416,0,0,0,.863-1.367v-.83a1.729,1.729,0,0,1-.487.21,3.59,3.59,0,0,1-.584.116l-.624.076a2.415,2.415,0,0,0-.846.23.91.91,0,0,0-.482.857A.845.845,0,0,0,104.329,49.121Z"/><path d="M109.759,43.912h.975v.871a2.763,2.763,0,0,1,.927-.777,2.472,2.472,0,0,1,1.087-.236,1.794,1.794,0,0,1,1.772.913,3.23,3.23,0,0,1,.253,1.429v3.943h-1.031V46.183a2.084,2.084,0,0,0-.167-.907,1.021,1.021,0,0,0-1.008-.574,2.05,2.05,0,0,0-.607.075,1.565,1.565,0,0,0-.753.5,1.526,1.526,0,0,0-.338.629,4.19,4.19,0,0,0-.079.927v3.218h-1.031Z"/><path d="M119.577,46.334a.562.562,0,0,0,.477-.3.909.909,0,0,0,.068-.393.835.835,0,0,0-.375-.761,2.026,2.026,0,0,0-1.073-.236,1.372,1.372,0,0,0-1.145.432,1.417,1.417,0,0,0-.246.712h-.96a1.782,1.782,0,0,1,.735-1.587,3,3,0,0,1,1.64-.447,3.276,3.276,0,0,1,1.758.422,1.421,1.421,0,0,1,.669,1.29v3.526a.461.461,0,0,0,.065.258.315.315,0,0,0,.276.1,1.274,1.274,0,0,0,.155-.009c.056-.005.117-.014.182-.025v.764a2.751,2.751,0,0,1-.366.086,2.588,2.588,0,0,1-.343.017.845.845,0,0,1-.772-.379,1.436,1.436,0,0,1-.176-.569,2.636,2.636,0,0,1-.907.726,2.778,2.778,0,0,1-1.3.307,1.934,1.934,0,0,1-1.4-.52,1.726,1.726,0,0,1-.542-1.3,1.679,1.679,0,0,1,.533-1.328,2.556,2.556,0,0,1,1.4-.58ZM117.4,49.121a1.218,1.218,0,0,0,.776.256,2.369,2.369,0,0,0,1.057-.251,1.415,1.415,0,0,0,.862-1.367v-.83a1.729,1.729,0,0,1-.487.21,3.59,3.59,0,0,1-.584.116l-.623.076a2.4,2.4,0,0,0-.846.23.91.91,0,0,0-.483.857A.848.848,0,0,0,117.4,49.121Z"/><path d="M126.206,44.093a2.763,2.763,0,0,1,.62.6V41.609h.989v8.446h-.932V49.2a2.2,2.2,0,0,1-.848.813,2.422,2.422,0,0,1-1.121.25,2.263,2.263,0,0,1-1.763-.863,3.393,3.393,0,0,1-.746-2.3,3.977,3.977,0,0,1,.682-2.325,2.225,2.225,0,0,1,1.945-.983A2.176,2.176,0,0,1,126.206,44.093Zm-2.3,4.616a1.442,1.442,0,0,0,1.327.668,1.389,1.389,0,0,0,1.164-.619,2.952,2.952,0,0,0,.456-1.777,2.655,2.655,0,0,0-.47-1.731,1.456,1.456,0,0,0-1.162-.562,1.526,1.526,0,0,0-1.25.6,2.778,2.778,0,0,0-.479,1.763A3.1,3.1,0,0,0,123.907,48.709Z"/><path d="M132.647,46.334a.565.565,0,0,0,.477-.3.909.909,0,0,0,.068-.393.833.833,0,0,0-.375-.761,2.026,2.026,0,0,0-1.073-.236,1.371,1.371,0,0,0-1.145.432,1.417,1.417,0,0,0-.246.712h-.961a1.785,1.785,0,0,1,.737-1.587,3,3,0,0,1,1.639-.447,3.267,3.267,0,0,1,1.757.422,1.419,1.419,0,0,1,.669,1.29v3.526a.445.445,0,0,0,.067.258c.043.065.135.1.276.1a1.269,1.269,0,0,0,.154-.009c.056-.005.117-.014.181-.025v.764a2.709,2.709,0,0,1-.365.086,2.578,2.578,0,0,1-.343.017.842.842,0,0,1-.771-.379,1.467,1.467,0,0,1-.178-.569,2.632,2.632,0,0,1-.906.726,2.778,2.778,0,0,1-1.3.307,1.933,1.933,0,0,1-1.4-.52,1.722,1.722,0,0,1-.542-1.3,1.679,1.679,0,0,1,.534-1.328,2.547,2.547,0,0,1,1.4-.58Zm-2.179,2.787a1.224,1.224,0,0,0,.776.256,2.367,2.367,0,0,0,1.058-.251,1.416,1.416,0,0,0,.861-1.367v-.83a1.7,1.7,0,0,1-.486.21,3.611,3.611,0,0,1-.584.116l-.624.076a2.4,2.4,0,0,0-.845.23.91.91,0,0,0-.483.857A.847.847,0,0,0,130.468,49.121Z"/><path d="M140.043,47.33a2.373,2.373,0,0,0,.326,1.166,2.126,2.126,0,0,0,1.928.839,3.3,3.3,0,0,0,1.126-.184,1.3,1.3,0,0,0,.984-1.282,1.126,1.126,0,0,0-.417-.988,4.153,4.153,0,0,0-1.321-.494l-1.106-.256a4.879,4.879,0,0,1-1.534-.555,1.786,1.786,0,0,1-.777-1.581,2.464,2.464,0,0,1,.766-1.867,3.016,3.016,0,0,1,2.169-.73,3.7,3.7,0,0,1,2.193.639,2.331,2.331,0,0,1,.9,2.044h-1.073a2.157,2.157,0,0,0-.352-1.036,2.006,2.006,0,0,0-1.7-.659,1.91,1.91,0,0,0-1.393.426,1.354,1.354,0,0,0-.424.988.971.971,0,0,0,.5.908,7.105,7.105,0,0,0,1.483.46l1.145.271a3.442,3.442,0,0,1,1.277.533,2.023,2.023,0,0,1,.778,1.717,2.16,2.16,0,0,1-.994,2,4.366,4.366,0,0,1-2.308.6,3.4,3.4,0,0,1-2.4-.8,2.744,2.744,0,0,1-.851-2.162Z"/><path d="M151.048,44.248a2.413,2.413,0,0,1,.783,1.74h-1a1.867,1.867,0,0,0-.42-.95,1.326,1.326,0,0,0-1.053-.378,1.455,1.455,0,0,0-1.415.963,3.835,3.835,0,0,0-.276,1.542,2.9,2.9,0,0,0,.391,1.554,1.521,1.521,0,0,0,2.253.237,2.167,2.167,0,0,0,.52-1.076h1a2.431,2.431,0,0,1-2.625,2.359,2.354,2.354,0,0,1-1.924-.88,3.365,3.365,0,0,1-.719-2.2,3.7,3.7,0,0,1,.788-2.518,2.546,2.546,0,0,1,2.005-.9A2.684,2.684,0,0,1,151.048,44.248Z"/><path d="M152.877,41.609h1.031v3.123a2.955,2.955,0,0,1,.661-.651,2.244,2.244,0,0,1,1.246-.325,1.848,1.848,0,0,1,1.817.936,3.2,3.2,0,0,1,.259,1.418v3.945h-1.06v-3.88a2.159,2.159,0,0,0-.173-.995,1.1,1.1,0,0,0-1.058-.506,1.769,1.769,0,0,0-1.169.443,2.128,2.128,0,0,0-.523,1.673v3.265h-1.031Z"/><path d="M163.864,44.531a3.086,3.086,0,0,1,.816,2.322,3.993,3.993,0,0,1-.719,2.448,2.6,2.6,0,0,1-2.23.966,2.518,2.518,0,0,1-2-.854,3.388,3.388,0,0,1-.741-2.3,3.66,3.66,0,0,1,.781-2.459,2.62,2.62,0,0,1,2.1-.915A2.762,2.762,0,0,1,163.864,44.531Zm-.636,4.07a3.878,3.878,0,0,0,.378-1.725,3.093,3.093,0,0,0-.273-1.4,1.536,1.536,0,0,0-1.492-.847,1.47,1.47,0,0,0-1.367.721,3.355,3.355,0,0,0-.427,1.74,2.918,2.918,0,0,0,.427,1.632,1.5,1.5,0,0,0,1.355.652A1.413,1.413,0,0,0,163.228,48.6Z"/><path d="M170.4,44.531a3.086,3.086,0,0,1,.816,2.322A3.993,3.993,0,0,1,170.5,49.3a2.6,2.6,0,0,1-2.23.966,2.518,2.518,0,0,1-2-.854,3.388,3.388,0,0,1-.741-2.3,3.66,3.66,0,0,1,.781-2.459,2.62,2.62,0,0,1,2.1-.915A2.762,2.762,0,0,1,170.4,44.531Zm-.636,4.07a3.878,3.878,0,0,0,.378-1.725,3.093,3.093,0,0,0-.273-1.4,1.536,1.536,0,0,0-1.492-.847,1.469,1.469,0,0,0-1.367.721,3.355,3.355,0,0,0-.427,1.74,2.918,2.918,0,0,0,.427,1.632,1.5,1.5,0,0,0,1.355.652A1.413,1.413,0,0,0,169.763,48.6Z"/><path d="M172.51,41.609h1.031v8.446H172.51Z"/><path d="M99.191,57.75a3.087,3.087,0,0,1,.816,2.323,3.99,3.99,0,0,1-.719,2.447,2.593,2.593,0,0,1-2.229.966,2.512,2.512,0,0,1-2-.854,3.382,3.382,0,0,1-.742-2.3,3.666,3.666,0,0,1,.781-2.46,2.62,2.62,0,0,1,2.1-.915A2.762,2.762,0,0,1,99.191,57.75Zm-.636,4.071a3.886,3.886,0,0,0,.379-1.726,3.082,3.082,0,0,0-.274-1.4,1.536,1.536,0,0,0-1.492-.847,1.467,1.467,0,0,0-1.366.722,3.34,3.34,0,0,0-.428,1.74,2.909,2.909,0,0,0,.428,1.631,1.5,1.5,0,0,0,1.355.652A1.411,1.411,0,0,0,98.555,61.821Z"/><path d="M101.751,55.268a1.579,1.579,0,0,1,1.391-.524c.064,0,.131,0,.2.007s.147.012.235.021v.946c-.107-.012-.184-.02-.231-.023s-.093-.005-.135-.005q-.468,0-.559.241a4.715,4.715,0,0,0-.092,1.228h1.017v.819h-1.017v5.3h-1.031v-5.3h-.862v-.819h.862V56.2A1.826,1.826,0,0,1,101.751,55.268Z"/><path d="M108.043,54.842h3.772a2.572,2.572,0,0,1,1.809.634,2.293,2.293,0,0,1,.69,1.779,2.577,2.577,0,0,1-.616,1.716,2.323,2.323,0,0,1-1.88.73h-2.631v3.573h-1.144Zm4.43,1.153a2.461,2.461,0,0,0-1.031-.178h-2.255v2.924h2.255a2.141,2.141,0,0,0,1.238-.327,1.3,1.3,0,0,0,.476-1.155A1.274,1.274,0,0,0,112.473,55.995Z"/><path d="M116.671,57.13v4.077a1.772,1.772,0,0,0,.145.769,1,1,0,0,0,.995.55,1.407,1.407,0,0,0,1.423-.963,3.935,3.935,0,0,0,.205-1.416V57.13h1.032v6.144H119.5l.011-.908a2.071,2.071,0,0,1-.488.594,2.116,2.116,0,0,1-1.4.484,1.8,1.8,0,0,1-1.752-.878,2.669,2.669,0,0,1-.252-1.257V57.13Z"/><path d="M122.09,54.828h1v3.034a2.267,2.267,0,0,1,1.837-.9,2.4,2.4,0,0,1,1.867.793,3.373,3.373,0,0,1,.717,2.335,4,4,0,0,1-.709,2.43,2.3,2.3,0,0,1-1.964.967,2,2,0,0,1-1.187-.341,2.817,2.817,0,0,1-.617-.646v.775h-.947Zm3.948,7.072a3.307,3.307,0,0,0,.417-1.766,2.9,2.9,0,0,0-.417-1.614,1.374,1.374,0,0,0-1.229-.641,1.717,1.717,0,0,0-1.24.525,2.362,2.362,0,0,0-.532,1.73,3.833,3.833,0,0,0,.219,1.414,1.51,1.51,0,0,0,1.524,1.02A1.382,1.382,0,0,0,126.038,61.9Z"/><path d="M128.738,54.828h1.031v8.446h-1.031Z"/><path d="M131.321,56h1.031V54.828h-1.031Zm0,7.273h1.031V57.159h-1.031Z"/><path d="M137.978,57.467a2.419,2.419,0,0,1,.784,1.74h-1a1.856,1.856,0,0,0-.42-.949,1.32,1.32,0,0,0-1.052-.379,1.453,1.453,0,0,0-1.415.963,3.8,3.8,0,0,0-.277,1.542,2.9,2.9,0,0,0,.391,1.554,1.52,1.52,0,0,0,2.252.237,2.151,2.151,0,0,0,.521-1.076h1a2.432,2.432,0,0,1-2.626,2.359,2.355,2.355,0,0,1-1.924-.88,3.363,3.363,0,0,1-.719-2.2,3.7,3.7,0,0,1,.788-2.518,2.545,2.545,0,0,1,2-.9A2.684,2.684,0,0,1,137.978,57.467Z"/><path d="M143.95,60.548a2.381,2.381,0,0,0,.326,1.167,2.124,2.124,0,0,0,1.928.839,3.262,3.262,0,0,0,1.127-.185,1.3,1.3,0,0,0,.984-1.281,1.125,1.125,0,0,0-.417-.987,4.143,4.143,0,0,0-1.322-.5l-1.106-.256a4.826,4.826,0,0,1-1.533-.555,1.783,1.783,0,0,1-.778-1.581,2.473,2.473,0,0,1,.766-1.868,3.021,3.021,0,0,1,2.169-.73,3.7,3.7,0,0,1,2.193.64,2.33,2.33,0,0,1,.9,2.044h-1.073a2.182,2.182,0,0,0-.352-1.036,2.009,2.009,0,0,0-1.7-.659,1.908,1.908,0,0,0-1.393.426,1.355,1.355,0,0,0-.424.988.972.972,0,0,0,.5.909,7.28,7.28,0,0,0,1.483.46l1.145.27a3.425,3.425,0,0,1,1.277.534,2.021,2.021,0,0,1,.778,1.716,2.158,2.158,0,0,1-.994,2,4.357,4.357,0,0,1-2.308.6,3.4,3.4,0,0,1-2.4-.8,2.748,2.748,0,0,1-.85-2.164Z"/><path d="M154.7,57.3a2.308,2.308,0,0,1,.929.791,2.74,2.74,0,0,1,.411,1.082,7.067,7.067,0,0,1,.092,1.351h-4.477a2.664,2.664,0,0,0,.438,1.509,1.467,1.467,0,0,0,1.272.567,1.646,1.646,0,0,0,1.284-.529,1.807,1.807,0,0,0,.381-.714h1.017a2.12,2.12,0,0,1-.267.751,2.754,2.754,0,0,1-.506.675,2.393,2.393,0,0,1-1.157.616,3.5,3.5,0,0,1-.837.091,2.566,2.566,0,0,1-1.934-.834,3.255,3.255,0,0,1-.793-2.337,3.543,3.543,0,0,1,.8-2.4,2.628,2.628,0,0,1,2.088-.924A2.785,2.785,0,0,1,154.7,57.3Zm.373,2.4a2.712,2.712,0,0,0-.292-1.074,1.486,1.486,0,0,0-1.407-.748,1.552,1.552,0,0,0-1.184.515,1.941,1.941,0,0,0-.507,1.307Z"/><path d="M157.472,57.13h.975v1.055a2.333,2.333,0,0,1,.594-.752,1.546,1.546,0,0,1,1.09-.444c.019,0,.052,0,.1.006l.236.022V58.1a1.444,1.444,0,0,0-.17-.022c-.052,0-.109-.006-.169-.006a1.481,1.481,0,0,0-1.2.5,1.75,1.75,0,0,0-.42,1.156v3.538h-1.031Z"/><path d="M161.85,57.13l1.639,5,1.709-5h1.13l-2.312,6.144h-1.1L160.65,57.13Z"/><path d="M167.232,54.828h1.031V56h-1.031Zm0,2.331h1.031v6.115h-1.031Z"/><path d="M173.888,57.467a2.412,2.412,0,0,1,.784,1.74h-1a1.855,1.855,0,0,0-.419-.949,1.323,1.323,0,0,0-1.053-.379,1.455,1.455,0,0,0-1.415.963,3.818,3.818,0,0,0-.276,1.542,2.891,2.891,0,0,0,.391,1.554,1.52,1.52,0,0,0,2.252.237,2.15,2.15,0,0,0,.52-1.076h1a2.429,2.429,0,0,1-2.625,2.359,2.354,2.354,0,0,1-1.924-.88,3.357,3.357,0,0,1-.719-2.2,3.7,3.7,0,0,1,.788-2.518,2.546,2.546,0,0,1,2.005-.9A2.679,2.679,0,0,1,173.888,57.467Z"/><path d="M179.511,57.3a2.317,2.317,0,0,1,.93.791,2.74,2.74,0,0,1,.411,1.082,7.089,7.089,0,0,1,.091,1.351h-4.477a2.656,2.656,0,0,0,.44,1.509,1.463,1.463,0,0,0,1.272.567,1.646,1.646,0,0,0,1.283-.529,1.807,1.807,0,0,0,.381-.714h1.016a2.082,2.082,0,0,1-.267.751,2.706,2.706,0,0,1-.506.675,2.381,2.381,0,0,1-1.156.616,3.5,3.5,0,0,1-.837.091,2.57,2.57,0,0,1-1.935-.834,3.255,3.255,0,0,1-.793-2.337,3.543,3.543,0,0,1,.8-2.4,2.627,2.627,0,0,1,2.088-.924A2.781,2.781,0,0,1,179.511,57.3Zm.373,2.4a2.7,2.7,0,0,0-.291-1.074,1.487,1.487,0,0,0-1.407-.748,1.554,1.554,0,0,0-1.185.515,1.956,1.956,0,0,0-.507,1.307Z"/><rect class="a" width="10.102" height="21.66" transform="translate(31.897 41.714)"/><path class="a" d="M55.256,46.364,53.8,43.6l-1.469,2.763a.387.387,0,0,1-.226.2.439.439,0,0,1-.439-.04l-1.337-.8.968,4.51a.385.385,0,0,1-.175.4.4.4,0,0,1-.443-.044l-1.963-2.168s-.511,1.121-.511,1.11a.463.463,0,0,1-.155.226.47.47,0,0,1-.426.072l-2.042-.49.665,2.588a.456.456,0,0,1-.226.567l-.64.316,4.083,3.265a.451.451,0,0,1,.127.232.444.444,0,0,1-.009.238l-.5,1.483,3.815-.682a.46.46,0,0,1,.544.459l-.149,3.835H54.31l-.165-3.824a.459.459,0,0,1,.489-.476l3.867.688-.488-1.455A.393.393,0,0,1,58,56.3a.432.432,0,0,1,.185-.272l4.024-3.216-.632-.309a.46.46,0,0,1-.251-.532L62,49.339l-2.048.49a.46.46,0,0,1-.573-.289h0l-.509-1.119s-1.756,2-1.947,2.154a.391.391,0,0,1-.468.049.36.36,0,0,1-.166-.408l.962-4.5-1.359.818a.454.454,0,0,1-.341.051.494.494,0,0,1-.3-.223"/><rect class="a" width="10.1" height="21.66" transform="translate(65.587 41.714)"/><path d="M199.973,41.6h6.13v1.031h-5.014v2.557h4.633v.974h-4.633v2.867h5.085v1h-6.2Zm4.647-2.33-1.536,1.666h-.795l1.054-1.666Z"/><path d="M211.617,44.22a2.417,2.417,0,0,1,.784,1.739h-1a1.868,1.868,0,0,0-.42-.949,1.324,1.324,0,0,0-1.053-.378,1.455,1.455,0,0,0-1.415.963,3.816,3.816,0,0,0-.275,1.542,2.887,2.887,0,0,0,.391,1.554,1.52,1.52,0,0,0,2.252.237,2.167,2.167,0,0,0,.52-1.076h1a2.432,2.432,0,0,1-2.625,2.359,2.356,2.356,0,0,1-1.925-.88,3.364,3.364,0,0,1-.718-2.2,3.7,3.7,0,0,1,.787-2.518,2.546,2.546,0,0,1,2.005-.9A2.678,2.678,0,0,1,211.617,44.22Z"/><path d="M217.9,44.5a3.086,3.086,0,0,1,.816,2.322,3.99,3.99,0,0,1-.719,2.447,2.594,2.594,0,0,1-2.23.967,2.516,2.516,0,0,1-2-.855,3.384,3.384,0,0,1-.741-2.3,3.658,3.658,0,0,1,.781-2.459,2.62,2.62,0,0,1,2.1-.915A2.762,2.762,0,0,1,217.9,44.5Zm-.636,4.07a3.881,3.881,0,0,0,.378-1.725,3.088,3.088,0,0,0-.273-1.4,1.536,1.536,0,0,0-1.492-.847,1.47,1.47,0,0,0-1.367.721,3.355,3.355,0,0,0-.427,1.74,2.918,2.918,0,0,0,.427,1.632,1.5,1.5,0,0,0,1.355.652A1.413,1.413,0,0,0,217.262,48.573Z"/><path d="M220.009,41.581h1.031v8.446h-1.031Z"/><path d="M226.386,44.048a2.324,2.324,0,0,1,.929.792,2.736,2.736,0,0,1,.411,1.081,7.185,7.185,0,0,1,.091,1.352H223.34a2.658,2.658,0,0,0,.439,1.508,1.463,1.463,0,0,0,1.272.568,1.64,1.64,0,0,0,1.283-.53,1.792,1.792,0,0,0,.382-.713h1.017a2.151,2.151,0,0,1-.268.751,2.729,2.729,0,0,1-.506.675,2.394,2.394,0,0,1-1.156.616,3.5,3.5,0,0,1-.838.091,2.567,2.567,0,0,1-1.934-.834,3.256,3.256,0,0,1-.793-2.337,3.544,3.544,0,0,1,.8-2.4,2.632,2.632,0,0,1,2.088-.923A2.788,2.788,0,0,1,226.386,44.048Zm.372,2.406a2.7,2.7,0,0,0-.291-1.075,1.486,1.486,0,0,0-1.407-.747,1.553,1.553,0,0,0-1.185.514,1.949,1.949,0,0,0-.507,1.308Z"/><path d="M235.766,44.065a2.723,2.723,0,0,1,.622.6V41.581h.988v8.446h-.932v-.851a2.218,2.218,0,0,1-.847.813,2.428,2.428,0,0,1-1.121.25,2.265,2.265,0,0,1-1.764-.863,3.392,3.392,0,0,1-.745-2.3,3.981,3.981,0,0,1,.681-2.325,2.224,2.224,0,0,1,1.945-.984A2.17,2.17,0,0,1,235.766,44.065Zm-2.3,4.616a1.44,1.44,0,0,0,1.326.668,1.39,1.39,0,0,0,1.165-.62,2.956,2.956,0,0,0,.456-1.776,2.666,2.666,0,0,0-.47-1.732,1.46,1.46,0,0,0-1.163-.561,1.527,1.527,0,0,0-1.25.6,2.778,2.778,0,0,0-.478,1.763A3.087,3.087,0,0,0,233.469,48.681Z"/><path d="M242.72,44.048a2.324,2.324,0,0,1,.929.792,2.737,2.737,0,0,1,.412,1.081,7.185,7.185,0,0,1,.091,1.352h-4.478a2.658,2.658,0,0,0,.44,1.508,1.461,1.461,0,0,0,1.272.568,1.642,1.642,0,0,0,1.283-.53,1.778,1.778,0,0,0,.381-.713h1.017a2.111,2.111,0,0,1-.268.751,2.681,2.681,0,0,1-.506.675,2.389,2.389,0,0,1-1.156.616,3.5,3.5,0,0,1-.837.091,2.57,2.57,0,0,1-1.935-.834,3.26,3.26,0,0,1-.792-2.337,3.544,3.544,0,0,1,.8-2.4,2.63,2.63,0,0,1,2.088-.923A2.781,2.781,0,0,1,242.72,44.048Zm.372,2.406a2.682,2.682,0,0,0-.29-1.075,1.488,1.488,0,0,0-1.407-.747,1.555,1.555,0,0,0-1.186.514,1.963,1.963,0,0,0-.507,1.308Z"/><path d="M248.753,41.581h1.031v8.446h-1.031Z"/><path d="M254.619,46.305a.56.56,0,0,0,.476-.3.893.893,0,0,0,.069-.393.833.833,0,0,0-.376-.761,2.021,2.021,0,0,0-1.073-.236,1.367,1.367,0,0,0-1.144.432,1.417,1.417,0,0,0-.246.712h-.961a1.782,1.782,0,0,1,.736-1.587,3,3,0,0,1,1.64-.447,3.264,3.264,0,0,1,1.756.422,1.416,1.416,0,0,1,.67,1.289v3.527a.455.455,0,0,0,.066.258.318.318,0,0,0,.276.1,1.479,1.479,0,0,0,.154-.009c.057-.005.118-.014.182-.026v.765a2.751,2.751,0,0,1-.366.086,2.571,2.571,0,0,1-.342.017.845.845,0,0,1-.772-.379,1.457,1.457,0,0,1-.177-.569,2.627,2.627,0,0,1-.907.726,2.778,2.778,0,0,1-1.3.307,1.934,1.934,0,0,1-1.4-.52,1.726,1.726,0,0,1-.542-1.3,1.678,1.678,0,0,1,.534-1.328,2.543,2.543,0,0,1,1.4-.58Zm-2.179,2.787a1.215,1.215,0,0,0,.776.257,2.376,2.376,0,0,0,1.057-.251,1.415,1.415,0,0,0,.862-1.368V46.9a1.693,1.693,0,0,1-.486.211,3.632,3.632,0,0,1-.584.116l-.625.076a2.409,2.409,0,0,0-.845.23.91.91,0,0,0-.482.857A.841.841,0,0,0,252.44,49.092Z"/><path d="M261.613,42.021A1.578,1.578,0,0,1,263,41.5c.065,0,.132,0,.2.007l.233.022v.946c-.106-.012-.183-.02-.231-.023s-.092-.005-.134-.005q-.468,0-.56.241a4.733,4.733,0,0,0-.091,1.228h1.016v.819h-1.016v5.3H261.39v-5.3h-.862v-.819h.862v-.957A1.82,1.82,0,0,1,261.613,42.021Z"/><path d="M268.853,44.5a3.086,3.086,0,0,1,.816,2.322,3.984,3.984,0,0,1-.72,2.447,2.591,2.591,0,0,1-2.229.967,2.517,2.517,0,0,1-2-.855,3.383,3.383,0,0,1-.74-2.3,3.658,3.658,0,0,1,.781-2.459,2.618,2.618,0,0,1,2.1-.915A2.763,2.763,0,0,1,268.853,44.5Zm-.636,4.07a3.882,3.882,0,0,0,.378-1.725,3.087,3.087,0,0,0-.273-1.4,1.536,1.536,0,0,0-1.492-.847,1.472,1.472,0,0,0-1.368.721,3.364,3.364,0,0,0-.426,1.74,2.926,2.926,0,0,0,.426,1.632,1.5,1.5,0,0,0,1.356.652A1.413,1.413,0,0,0,268.217,48.573Z"/><path d="M270.935,43.883h.975v.872a2.759,2.759,0,0,1,.926-.777,2.476,2.476,0,0,1,1.088-.236,1.8,1.8,0,0,1,1.772.913,3.23,3.23,0,0,1,.253,1.429v3.943h-1.031V46.155a2.077,2.077,0,0,0-.168-.907,1.021,1.021,0,0,0-1.007-.574,2.1,2.1,0,0,0-.608.074,1.576,1.576,0,0,0-.752.5,1.517,1.517,0,0,0-.339.629,4.2,4.2,0,0,0-.078.927v3.218h-1.031Z"/><path d="M281.517,44.22a2.425,2.425,0,0,1,.784,1.739h-1a1.868,1.868,0,0,0-.42-.949,1.326,1.326,0,0,0-1.053-.378,1.454,1.454,0,0,0-1.415.963,3.815,3.815,0,0,0-.276,1.542,2.9,2.9,0,0,0,.391,1.554,1.52,1.52,0,0,0,2.252.237,2.159,2.159,0,0,0,.521-1.076h1a2.434,2.434,0,0,1-2.626,2.359,2.357,2.357,0,0,1-1.925-.88,3.37,3.37,0,0,1-.718-2.2,3.7,3.7,0,0,1,.788-2.518,2.543,2.543,0,0,1,2.005-.9A2.678,2.678,0,0,1,281.517,44.22Z"/><path d="M283.543,42.188h1.031v1.695h.988v.862h-.988v3.974a.426.426,0,0,0,.22.426.943.943,0,0,0,.4.063c.049,0,.1,0,.161,0s.126-.012.2-.024v.847a2.3,2.3,0,0,1-.369.076,3.548,3.548,0,0,1-.414.023,1.119,1.119,0,0,1-.979-.369,1.634,1.634,0,0,1-.257-.958V44.745h-.834v-.862h.834Z"/><path d="M286.61,41.581h1.031v1.172H286.61Zm0,2.331h1.031v6.115H286.61Z"/><path d="M293.673,44.5a3.086,3.086,0,0,1,.816,2.322,3.99,3.99,0,0,1-.719,2.447,2.6,2.6,0,0,1-2.23.967,2.516,2.516,0,0,1-2-.855,3.384,3.384,0,0,1-.741-2.3,3.658,3.658,0,0,1,.781-2.459,2.62,2.62,0,0,1,2.1-.915A2.763,2.763,0,0,1,293.673,44.5Zm-.637,4.07a3.868,3.868,0,0,0,.379-1.725,3.087,3.087,0,0,0-.273-1.4,1.536,1.536,0,0,0-1.492-.847,1.469,1.469,0,0,0-1.367.721,3.355,3.355,0,0,0-.427,1.74,2.918,2.918,0,0,0,.427,1.632,1.5,1.5,0,0,0,1.355.652A1.41,1.41,0,0,0,293.036,48.573Z"/><path d="M295.755,43.883h.975v.872a2.751,2.751,0,0,1,.927-.777,2.468,2.468,0,0,1,1.087-.236,1.794,1.794,0,0,1,1.772.913,3.23,3.23,0,0,1,.253,1.429v3.943h-1.031V46.155a2.062,2.062,0,0,0-.168-.907,1.019,1.019,0,0,0-1.007-.574,2.088,2.088,0,0,0-.607.074,1.574,1.574,0,0,0-.753.5,1.514,1.514,0,0,0-.338.629,4.19,4.19,0,0,0-.079.927v3.218h-1.031Z"/><path d="M199.648,57.13h1v.794a2.522,2.522,0,0,1,.68-.638,2.214,2.214,0,0,1,1.231-.339,2.316,2.316,0,0,1,1.779.8,3.282,3.282,0,0,1,.731,2.29,3.509,3.509,0,0,1-1.054,2.873,2.381,2.381,0,0,1-1.554.546,2.134,2.134,0,0,1-1.168-.3,2.643,2.643,0,0,1-.617-.584v3.115h-1.031Zm3.885,4.828a2.916,2.916,0,0,0,.48-1.824,3.444,3.444,0,0,0-.212-1.273,1.552,1.552,0,0,0-2.938.058,4.332,4.332,0,0,0-.212,1.469,3.152,3.152,0,0,0,.212,1.221,1.554,1.554,0,0,0,2.67.349Z"/><path d="M207.3,57.1v4.077a1.773,1.773,0,0,0,.145.769,1,1,0,0,0,.995.549,1.406,1.406,0,0,0,1.423-.963,3.947,3.947,0,0,0,.205-1.415V57.1H211.1v6.144h-.974l.011-.908a2.087,2.087,0,0,1-.488.594,2.117,2.117,0,0,1-1.4.484,1.8,1.8,0,0,1-1.752-.878,2.672,2.672,0,0,1-.252-1.257V57.1Z"/><path d="M212.718,54.8h1v3.034a2.267,2.267,0,0,1,1.836-.9,2.4,2.4,0,0,1,1.868.792,3.379,3.379,0,0,1,.717,2.335,4,4,0,0,1-.709,2.43,2.3,2.3,0,0,1-1.965.968,2,2,0,0,1-1.187-.341,2.839,2.839,0,0,1-.617-.646v.775h-.946Zm3.947,7.072a3.307,3.307,0,0,0,.417-1.766,2.9,2.9,0,0,0-.417-1.614,1.371,1.371,0,0,0-1.228-.641,1.711,1.711,0,0,0-1.24.525,2.362,2.362,0,0,0-.533,1.73,3.844,3.844,0,0,0,.219,1.413,1.51,1.51,0,0,0,1.525,1.021A1.384,1.384,0,0,0,216.665,61.872Z"/><path d="M219.366,54.8H220.4v8.446h-1.031Z"/><path d="M221.949,54.8h1.031v1.172h-1.031Zm0,2.33h1.031v6.116h-1.031Z"/><path d="M228.02,57.348a2.274,2.274,0,0,1,.55.612V57.1h.975v8.587h-1.031V62.557a1.85,1.85,0,0,1-.714.657,2.386,2.386,0,0,1-1.137.244,2.423,2.423,0,0,1-1.754-.771,3.184,3.184,0,0,1-.774-2.348,3.883,3.883,0,0,1,.725-2.428,2.257,2.257,0,0,1,1.877-.95A2.093,2.093,0,0,1,228.02,57.348Zm-2.588,4.26a1.42,1.42,0,0,0,1.416.96,1.481,1.481,0,0,0,1.485-1.012,3.9,3.9,0,0,0,.223-1.427,3.2,3.2,0,0,0-.246-1.335,1.491,1.491,0,0,0-1.473-.915,1.443,1.443,0,0,0-1.15.584,2.819,2.819,0,0,0-.478,1.8A3.527,3.527,0,0,0,225.432,61.608Z"/><path d="M232.125,57.1v4.077a1.772,1.772,0,0,0,.145.769,1,1,0,0,0,.995.549,1.406,1.406,0,0,0,1.423-.963,3.947,3.947,0,0,0,.205-1.415V57.1h1.031v6.144h-.974l.011-.908a2.088,2.088,0,0,1-.488.594,2.117,2.117,0,0,1-1.4.484,1.8,1.8,0,0,1-1.752-.878,2.672,2.672,0,0,1-.252-1.257V57.1Z"/><path d="M241.423,57.267a2.317,2.317,0,0,1,.929.792,2.743,2.743,0,0,1,.412,1.081,7.108,7.108,0,0,1,.091,1.352h-4.477A2.664,2.664,0,0,0,238.817,62a1.465,1.465,0,0,0,1.272.567,1.645,1.645,0,0,0,1.284-.53,1.789,1.789,0,0,0,.38-.713h1.017a2.111,2.111,0,0,1-.268.751,2.679,2.679,0,0,1-.505.675,2.4,2.4,0,0,1-1.157.616,3.492,3.492,0,0,1-.836.091,2.568,2.568,0,0,1-1.935-.834,3.255,3.255,0,0,1-.793-2.337,3.543,3.543,0,0,1,.8-2.4,2.628,2.628,0,0,1,2.087-.923A2.781,2.781,0,0,1,241.423,57.267Zm.372,2.406a2.681,2.681,0,0,0-.29-1.074,1.488,1.488,0,0,0-1.407-.748,1.56,1.56,0,0,0-1.186.514,1.96,1.96,0,0,0-.506,1.308Z"/><path d="M250.8,57.284a2.786,2.786,0,0,1,.621.6V54.8h.989v8.446h-.932V62.4a2.22,2.22,0,0,1-.849.812,2.418,2.418,0,0,1-1.12.25,2.262,2.262,0,0,1-1.764-.863,3.388,3.388,0,0,1-.745-2.3,3.984,3.984,0,0,1,.681-2.326,2.226,2.226,0,0,1,1.946-.984A2.184,2.184,0,0,1,250.8,57.284Zm-2.3,4.616a1.443,1.443,0,0,0,1.327.668A1.392,1.392,0,0,0,251,61.949a2.961,2.961,0,0,0,.456-1.777,2.664,2.664,0,0,0-.47-1.731,1.463,1.463,0,0,0-1.163-.562,1.528,1.528,0,0,0-1.25.6,2.78,2.78,0,0,0-.478,1.763A3.1,3.1,0,0,0,248.506,61.9Z"/><path d="M254.995,57.1v4.077a1.773,1.773,0,0,0,.144.769,1,1,0,0,0,1,.549,1.407,1.407,0,0,0,1.423-.963,3.948,3.948,0,0,0,.2-1.415V57.1h1.031v6.144h-.974l.011-.908a2.091,2.091,0,0,1-.489.594,2.117,2.117,0,0,1-1.4.484,1.8,1.8,0,0,1-1.752-.878,2.672,2.672,0,0,1-.252-1.257V57.1Z"/><path d="M269.857,55.43a2.988,2.988,0,0,1,.968,1.912h-1.116a2.12,2.12,0,0,0-2.3-1.765,2.481,2.481,0,0,0-1.976.875,4.035,4.035,0,0,0-.753,2.682,3.945,3.945,0,0,0,.678,2.4,2.349,2.349,0,0,0,2.023.921,2.128,2.128,0,0,0,1.886-.965,3.687,3.687,0,0,0,.512-1.337H270.9a3.835,3.835,0,0,1-.973,2.234,3.436,3.436,0,0,1-2.671,1.085,3.5,3.5,0,0,1-2.433-.89,5.531,5.531,0,0,1-.321-6.695,3.539,3.539,0,0,1,2.906-1.3A3.389,3.389,0,0,1,269.857,55.43Z"/><path d="M275.532,59.524a.559.559,0,0,0,.476-.3.9.9,0,0,0,.068-.393.833.833,0,0,0-.375-.761,2.022,2.022,0,0,0-1.072-.236,1.368,1.368,0,0,0-1.145.432,1.42,1.42,0,0,0-.246.712h-.961a1.79,1.79,0,0,1,.736-1.588,3.008,3.008,0,0,1,1.64-.446,3.279,3.279,0,0,1,1.757.422,1.419,1.419,0,0,1,.669,1.29v3.527a.449.449,0,0,0,.066.257.315.315,0,0,0,.276.1c.046,0,.1,0,.154-.008s.118-.015.182-.027v.765a2.744,2.744,0,0,1-.365.086,2.594,2.594,0,0,1-.344.017.844.844,0,0,1-.771-.379,1.463,1.463,0,0,1-.177-.568,2.651,2.651,0,0,1-.906.725,2.781,2.781,0,0,1-1.3.307,1.939,1.939,0,0,1-1.4-.519,1.73,1.73,0,0,1-.542-1.3,1.676,1.676,0,0,1,.534-1.327,2.528,2.528,0,0,1,1.4-.58Zm-2.179,2.787a1.221,1.221,0,0,0,.776.257,2.383,2.383,0,0,0,1.058-.251,1.417,1.417,0,0,0,.861-1.368v-.83a1.693,1.693,0,0,1-.486.211,3.739,3.739,0,0,1-.585.117l-.623.075a2.4,2.4,0,0,0-.845.23.909.909,0,0,0-.483.857A.844.844,0,0,0,273.353,62.311Z"/><path d="M278.784,57.1h.974v.871a2.763,2.763,0,0,1,.927-.775,2.463,2.463,0,0,1,1.088-.237,1.791,1.791,0,0,1,1.771.913A3.228,3.228,0,0,1,283.8,59.3v3.943h-1.031V59.374a2.08,2.08,0,0,0-.168-.907,1.02,1.02,0,0,0-1.007-.574,2.091,2.091,0,0,0-.608.075,1.565,1.565,0,0,0-.752.505,1.522,1.522,0,0,0-.339.629,4.191,4.191,0,0,0-.078.926v3.218h-1.031Z"/><path d="M288.6,59.524a.559.559,0,0,0,.476-.3.91.91,0,0,0,.068-.393.832.832,0,0,0-.374-.761,2.028,2.028,0,0,0-1.073-.236,1.368,1.368,0,0,0-1.145.432,1.411,1.411,0,0,0-.247.712h-.96a1.79,1.79,0,0,1,.736-1.588,3.009,3.009,0,0,1,1.639-.446,3.278,3.278,0,0,1,1.758.422,1.419,1.419,0,0,1,.669,1.29v3.527a.449.449,0,0,0,.066.257c.044.065.135.1.277.1.045,0,.1,0,.153-.008s.118-.015.182-.027v.765a2.78,2.78,0,0,1-.365.086,2.577,2.577,0,0,1-.343.017.841.841,0,0,1-.771-.379,1.479,1.479,0,0,1-.178-.568,2.646,2.646,0,0,1-.907.725,2.772,2.772,0,0,1-1.3.307,1.938,1.938,0,0,1-1.4-.519,1.73,1.73,0,0,1-.542-1.3,1.676,1.676,0,0,1,.534-1.327,2.531,2.531,0,0,1,1.4-.58Zm-2.179,2.787a1.225,1.225,0,0,0,.776.257,2.373,2.373,0,0,0,1.057-.251,1.416,1.416,0,0,0,.862-1.368v-.83a1.681,1.681,0,0,1-.486.211,3.726,3.726,0,0,1-.584.117l-.624.075a2.409,2.409,0,0,0-.846.23.91.91,0,0,0-.482.857A.844.844,0,0,0,286.423,62.311Z"/><path d="M295.23,57.284a2.788,2.788,0,0,1,.621.6V54.8h.988v8.446h-.932V62.4a2.209,2.209,0,0,1-.847.812,2.425,2.425,0,0,1-1.121.25,2.258,2.258,0,0,1-1.763-.863,3.388,3.388,0,0,1-.746-2.3,3.984,3.984,0,0,1,.681-2.326,2.226,2.226,0,0,1,1.945-.984A2.183,2.183,0,0,1,295.23,57.284Zm-2.3,4.616a1.443,1.443,0,0,0,1.327.668,1.39,1.39,0,0,0,1.165-.619,2.962,2.962,0,0,0,.456-1.777,2.653,2.653,0,0,0-.471-1.731,1.459,1.459,0,0,0-1.161-.562,1.525,1.525,0,0,0-1.25.6,2.773,2.773,0,0,0-.48,1.763A3.1,3.1,0,0,0,292.931,61.9Z"/><path d="M301.671,59.524a.559.559,0,0,0,.477-.3.91.91,0,0,0,.068-.393.832.832,0,0,0-.374-.761,2.03,2.03,0,0,0-1.074-.236,1.37,1.37,0,0,0-1.145.432,1.42,1.42,0,0,0-.246.712h-.96a1.79,1.79,0,0,1,.736-1.588,3.007,3.007,0,0,1,1.639-.446,3.28,3.28,0,0,1,1.758.422,1.419,1.419,0,0,1,.669,1.29v3.527a.449.449,0,0,0,.066.257c.043.065.135.1.276.1.045,0,.1,0,.154-.008s.117-.015.182-.027v.765a2.751,2.751,0,0,1-.366.086,2.561,2.561,0,0,1-.342.017.844.844,0,0,1-.772-.379,1.463,1.463,0,0,1-.177-.568,2.646,2.646,0,0,1-.907.725,2.775,2.775,0,0,1-1.3.307,1.938,1.938,0,0,1-1.4-.519,1.73,1.73,0,0,1-.542-1.3,1.676,1.676,0,0,1,.534-1.327,2.531,2.531,0,0,1,1.4-.58Zm-2.178,2.787a1.223,1.223,0,0,0,.776.257,2.376,2.376,0,0,0,1.057-.251,1.416,1.416,0,0,0,.862-1.368v-.83a1.688,1.688,0,0,1-.487.211,3.693,3.693,0,0,1-.583.117l-.624.075a2.409,2.409,0,0,0-.846.23.911.911,0,0,0-.483.857A.845.845,0,0,0,299.493,62.311Z"/></g></svg>