<?xml version="1.0" encoding="UTF-8" standalone="no"?>
<svg
   width="272"
   height="26.424"
   viewBox="0 0 272 26.424"
   version="1.1"
   id="svg277"
   sodipodi:docname="CSPS_FIP_BlackRed_F.svg"
   inkscape:export-filename="C:\Users\llacasse\Downloads\CSPS_FIP_BlackRed_F.png"
   inkscape:export-xdpi="96"
   inkscape:export-ydpi="96"
   inkscape:version="1.1.1 (3bf5ae0d25, 2021-09-20)"
   xmlns:inkscape="http://www.inkscape.org/namespaces/inkscape"
   xmlns:sodipodi="http://sodipodi.sourceforge.net/DTD/sodipodi-0.dtd"
   xmlns="http://www.w3.org/2000/svg"
   xmlns:svg="http://www.w3.org/2000/svg">
  <sodipodi:namedview
     id="namedview279"
     pagecolor="#ffffff"
     bordercolor="#666666"
     borderopacity="1.0"
     inkscape:pageshadow="2"
     inkscape:pageopacity="0.0"
     inkscape:pagecheckerboard="0"
     showgrid="false"
     inkscape:zoom="6.2757353"
     inkscape:cx="147.31342"
     inkscape:cy="13.14587"
     inkscape:window-width="1920"
     inkscape:window-height="1001"
     inkscape:window-x="-9"
     inkscape:window-y="-9"
     inkscape:window-maximized="1"
     inkscape:current-layer="g275" />
  <defs
     id="defs147">
    <style
       id="style145">.a{fill:#e61e25;}</style>
  </defs>
  <g
     transform="translate(-31.897 -39.265)"
     id="g275">
    <path
       d="m 221.13563,42.399344 a 2.979,2.979 0 0 1 0.97,1.912 h -1.116 a 2.122,2.122 0 0 0 -2.3,-1.766 2.479,2.479 0 0 0 -1.976,0.875 4.041,4.041 0 0 0 -0.752,2.682 3.95,3.95 0 0 0 0.678,2.4 2.352,2.352 0 0 0 2.023,0.92 2.129,2.129 0 0 0 1.886,-0.965 3.724,3.724 0 0 0 0.512,-1.337 h 1.115 a 3.843,3.843 0 0 1 -0.971,2.239 3.444,3.444 0 0 1 -2.672,1.085 3.491,3.491 0 0 1 -2.432,-0.889 4.675,4.675 0 0 1 -1.3,-3.636 4.689,4.689 0 0 1 0.974,-3.061 3.539,3.539 0 0 1 2.906,-1.3 3.379,3.379 0 0 1 2.455,0.841 z"
       id="path149" />
    <path
       d="m 226.81163,46.493344 a 0.562,0.562 0 0 0 0.476,-0.3 0.893,0.893 0 0 0 0.069,-0.393 0.833,0.833 0 0 0 -0.375,-0.761 2.025,2.025 0 0 0 -1.074,-0.236 1.372,1.372 0 0 0 -1.144,0.432 1.417,1.417 0 0 0 -0.246,0.712 h -0.96 a 1.782,1.782 0 0 1 0.735,-1.587 3,3 0 0 1 1.64,-0.447 3.267,3.267 0 0 1 1.757,0.422 1.418,1.418 0 0 1 0.67,1.29 v 3.526 a 0.461,0.461 0 0 0 0.065,0.258 0.315,0.315 0 0 0 0.276,0.1 1.237,1.237 0 0 0 0.154,-0.009 c 0.057,-0.005 0.118,-0.014 0.183,-0.025 v 0.764 a 2.794,2.794 0 0 1 -0.367,0.086 2.551,2.551 0 0 1 -0.342,0.017 0.845,0.845 0 0 1 -0.772,-0.379 1.468,1.468 0 0 1 -0.177,-0.569 2.617,2.617 0 0 1 -0.907,0.726 2.775,2.775 0 0 1 -1.3,0.307 1.932,1.932 0 0 1 -1.4,-0.52 1.722,1.722 0 0 1 -0.542,-1.3 1.679,1.679 0 0 1 0.533,-1.328 2.556,2.556 0 0 1 1.4,-0.58 z m -2.178,2.787 a 1.218,1.218 0 0 0 0.776,0.256 2.358,2.358 0 0 0 1.056,-0.251 1.416,1.416 0 0 0 0.863,-1.367 v -0.83 a 1.729,1.729 0 0 1 -0.487,0.21 3.59,3.59 0 0 1 -0.584,0.116 l -0.624,0.076 a 2.415,2.415 0 0 0 -0.846,0.23 0.91,0.91 0 0 0 -0.482,0.857 0.845,0.845 0 0 0 0.328,0.703 z"
       id="path151" />
    <path
       d="m 230.06363,44.071344 h 0.975 v 0.871 a 2.763,2.763 0 0 1 0.927,-0.777 2.472,2.472 0 0 1 1.087,-0.236 1.794,1.794 0 0 1 1.772,0.913 3.23,3.23 0 0 1 0.253,1.429 v 3.943 h -1.031 v -3.872 a 2.084,2.084 0 0 0 -0.167,-0.907 1.021,1.021 0 0 0 -1.008,-0.574 2.05,2.05 0 0 0 -0.607,0.075 1.565,1.565 0 0 0 -0.753,0.5 1.526,1.526 0 0 0 -0.338,0.629 4.19,4.19 0 0 0 -0.079,0.927 v 3.218 h -1.031 z"
       id="path153" />
    <path
       d="m 239.88163,46.493344 a 0.562,0.562 0 0 0 0.477,-0.3 0.909,0.909 0 0 0 0.068,-0.393 0.835,0.835 0 0 0 -0.375,-0.761 2.026,2.026 0 0 0 -1.073,-0.236 1.372,1.372 0 0 0 -1.145,0.432 1.417,1.417 0 0 0 -0.246,0.712 h -0.96 a 1.782,1.782 0 0 1 0.735,-1.587 3,3 0 0 1 1.64,-0.447 3.276,3.276 0 0 1 1.758,0.422 1.421,1.421 0 0 1 0.669,1.29 v 3.526 a 0.461,0.461 0 0 0 0.065,0.258 0.315,0.315 0 0 0 0.276,0.1 1.274,1.274 0 0 0 0.155,-0.009 c 0.056,-0.005 0.117,-0.014 0.182,-0.025 v 0.764 a 2.751,2.751 0 0 1 -0.366,0.086 2.588,2.588 0 0 1 -0.343,0.017 0.845,0.845 0 0 1 -0.772,-0.379 1.436,1.436 0 0 1 -0.176,-0.569 2.636,2.636 0 0 1 -0.907,0.726 2.778,2.778 0 0 1 -1.3,0.307 1.934,1.934 0 0 1 -1.4,-0.52 1.726,1.726 0 0 1 -0.542,-1.3 1.679,1.679 0 0 1 0.533,-1.328 2.556,2.556 0 0 1 1.4,-0.58 z m -2.177,2.787 a 1.218,1.218 0 0 0 0.776,0.256 2.369,2.369 0 0 0 1.057,-0.251 1.415,1.415 0 0 0 0.862,-1.367 v -0.83 a 1.729,1.729 0 0 1 -0.487,0.21 3.59,3.59 0 0 1 -0.584,0.116 l -0.623,0.076 a 2.4,2.4 0 0 0 -0.846,0.23 0.91,0.91 0 0 0 -0.483,0.857 0.848,0.848 0 0 0 0.328,0.703 z"
       id="path155" />
    <path
       d="m 246.51063,44.252344 a 2.763,2.763 0 0 1 0.62,0.6 v -3.084 h 0.989 v 8.446 h -0.932 v -0.855 a 2.2,2.2 0 0 1 -0.848,0.813 2.422,2.422 0 0 1 -1.121,0.25 2.263,2.263 0 0 1 -1.763,-0.863 3.393,3.393 0 0 1 -0.746,-2.3 3.977,3.977 0 0 1 0.682,-2.325 2.225,2.225 0 0 1 1.945,-0.983 2.176,2.176 0 0 1 1.174,0.301 z m -2.3,4.616 a 1.442,1.442 0 0 0 1.327,0.668 1.389,1.389 0 0 0 1.164,-0.619 2.952,2.952 0 0 0 0.456,-1.777 2.655,2.655 0 0 0 -0.47,-1.731 1.456,1.456 0 0 0 -1.162,-0.562 1.526,1.526 0 0 0 -1.25,0.6 2.778,2.778 0 0 0 -0.479,1.763 3.1,3.1 0 0 0 0.415,1.658 z"
       id="path157" />
    <path
       d="m 252.95163,46.493344 a 0.565,0.565 0 0 0 0.477,-0.3 0.909,0.909 0 0 0 0.068,-0.393 0.833,0.833 0 0 0 -0.375,-0.761 2.026,2.026 0 0 0 -1.073,-0.236 1.371,1.371 0 0 0 -1.145,0.432 1.417,1.417 0 0 0 -0.246,0.712 h -0.961 a 1.785,1.785 0 0 1 0.737,-1.587 3,3 0 0 1 1.639,-0.447 3.267,3.267 0 0 1 1.757,0.422 1.419,1.419 0 0 1 0.669,1.29 v 3.526 a 0.445,0.445 0 0 0 0.067,0.258 c 0.043,0.065 0.135,0.1 0.276,0.1 a 1.269,1.269 0 0 0 0.154,-0.009 c 0.056,-0.005 0.117,-0.014 0.181,-0.025 v 0.764 a 2.709,2.709 0 0 1 -0.365,0.086 2.578,2.578 0 0 1 -0.343,0.017 0.842,0.842 0 0 1 -0.771,-0.379 1.467,1.467 0 0 1 -0.178,-0.569 2.632,2.632 0 0 1 -0.906,0.726 2.778,2.778 0 0 1 -1.3,0.307 1.933,1.933 0 0 1 -1.4,-0.52 1.722,1.722 0 0 1 -0.542,-1.3 1.679,1.679 0 0 1 0.534,-1.328 2.547,2.547 0 0 1 1.4,-0.58 z m -2.179,2.787 a 1.224,1.224 0 0 0 0.776,0.256 2.367,2.367 0 0 0 1.058,-0.251 1.416,1.416 0 0 0 0.861,-1.367 v -0.83 a 1.7,1.7 0 0 1 -0.486,0.21 3.611,3.611 0 0 1 -0.584,0.116 l -0.624,0.076 a 2.4,2.4 0 0 0 -0.845,0.23 0.91,0.91 0 0 0 -0.483,0.857 0.847,0.847 0 0 0 0.327,0.703 z"
       id="path159" />
    <path
       d="m 260.34763,47.489344 a 2.373,2.373 0 0 0 0.326,1.166 2.126,2.126 0 0 0 1.928,0.839 3.3,3.3 0 0 0 1.126,-0.184 1.3,1.3 0 0 0 0.984,-1.282 1.126,1.126 0 0 0 -0.417,-0.988 4.153,4.153 0 0 0 -1.321,-0.494 l -1.106,-0.256 a 4.879,4.879 0 0 1 -1.534,-0.555 1.786,1.786 0 0 1 -0.777,-1.581 2.464,2.464 0 0 1 0.766,-1.867 3.016,3.016 0 0 1 2.169,-0.73 3.7,3.7 0 0 1 2.193,0.639 2.331,2.331 0 0 1 0.9,2.044 h -1.073 a 2.157,2.157 0 0 0 -0.352,-1.036 2.006,2.006 0 0 0 -1.7,-0.659 1.91,1.91 0 0 0 -1.393,0.426 1.354,1.354 0 0 0 -0.424,0.988 0.971,0.971 0 0 0 0.5,0.908 7.105,7.105 0 0 0 1.483,0.46 l 1.145,0.271 a 3.442,3.442 0 0 1 1.277,0.533 2.023,2.023 0 0 1 0.778,1.717 2.16,2.16 0 0 1 -0.994,2 4.366,4.366 0 0 1 -2.308,0.6 3.4,3.4 0 0 1 -2.4,-0.8 2.744,2.744 0 0 1 -0.851,-2.162 z"
       id="path161" />
    <path
       d="m 271.35263,44.407344 a 2.413,2.413 0 0 1 0.783,1.74 h -1 a 1.867,1.867 0 0 0 -0.42,-0.95 1.326,1.326 0 0 0 -1.053,-0.378 1.455,1.455 0 0 0 -1.415,0.963 3.835,3.835 0 0 0 -0.276,1.542 2.9,2.9 0 0 0 0.391,1.554 1.521,1.521 0 0 0 2.253,0.237 2.167,2.167 0 0 0 0.52,-1.076 h 1 a 2.431,2.431 0 0 1 -2.625,2.359 2.354,2.354 0 0 1 -1.924,-0.88 3.365,3.365 0 0 1 -0.719,-2.2 3.7,3.7 0 0 1 0.788,-2.518 2.546,2.546 0 0 1 2.005,-0.9 2.684,2.684 0 0 1 1.692,0.507 z"
       id="path163" />
    <path
       d="m 273.18163,41.768344 h 1.031 v 3.123 a 2.955,2.955 0 0 1 0.661,-0.651 2.244,2.244 0 0 1 1.246,-0.325 1.848,1.848 0 0 1 1.817,0.936 3.2,3.2 0 0 1 0.259,1.418 v 3.945 h -1.06 v -3.88 a 2.159,2.159 0 0 0 -0.173,-0.995 1.1,1.1 0 0 0 -1.058,-0.506 1.769,1.769 0 0 0 -1.169,0.443 2.128,2.128 0 0 0 -0.523,1.673 v 3.265 h -1.031 z"
       id="path165" />
    <path
       d="m 284.16863,44.690344 a 3.086,3.086 0 0 1 0.816,2.322 3.993,3.993 0 0 1 -0.719,2.448 2.6,2.6 0 0 1 -2.23,0.966 2.518,2.518 0 0 1 -2,-0.854 3.388,3.388 0 0 1 -0.741,-2.3 3.66,3.66 0 0 1 0.781,-2.459 2.62,2.62 0 0 1 2.1,-0.915 2.762,2.762 0 0 1 1.993,0.792 z m -0.636,4.07 a 3.878,3.878 0 0 0 0.378,-1.725 3.093,3.093 0 0 0 -0.273,-1.4 1.536,1.536 0 0 0 -1.492,-0.847 1.47,1.47 0 0 0 -1.367,0.721 3.355,3.355 0 0 0 -0.427,1.74 2.918,2.918 0 0 0 0.427,1.632 1.5,1.5 0 0 0 1.355,0.652 1.413,1.413 0 0 0 1.399,-0.774 z"
       id="path167" />
    <path
       d="m 290.70463,44.690344 a 3.086,3.086 0 0 1 0.816,2.322 3.993,3.993 0 0 1 -0.716,2.447 2.6,2.6 0 0 1 -2.23,0.966 2.518,2.518 0 0 1 -2,-0.854 3.388,3.388 0 0 1 -0.741,-2.3 3.66,3.66 0 0 1 0.781,-2.459 2.62,2.62 0 0 1 2.1,-0.915 2.762,2.762 0 0 1 1.99,0.793 z m -0.636,4.07 a 3.878,3.878 0 0 0 0.378,-1.725 3.093,3.093 0 0 0 -0.273,-1.4 1.536,1.536 0 0 0 -1.492,-0.847 1.469,1.469 0 0 0 -1.367,0.721 3.355,3.355 0 0 0 -0.427,1.74 2.918,2.918 0 0 0 0.427,1.632 1.5,1.5 0 0 0 1.355,0.652 1.413,1.413 0 0 0 1.398,-0.774 z"
       id="path169" />
    <path
       d="m 292.81463,41.768344 h 1.031 v 8.446 h -1.031 z"
       id="path171" />
    <path
       d="m 219.49563,57.909344 a 3.087,3.087 0 0 1 0.816,2.323 3.99,3.99 0 0 1 -0.719,2.447 2.593,2.593 0 0 1 -2.229,0.966 2.512,2.512 0 0 1 -2,-0.854 3.382,3.382 0 0 1 -0.742,-2.3 3.666,3.666 0 0 1 0.781,-2.46 2.62,2.62 0 0 1 2.1,-0.915 2.762,2.762 0 0 1 1.993,0.793 z m -0.636,4.071 a 3.886,3.886 0 0 0 0.379,-1.726 3.082,3.082 0 0 0 -0.274,-1.4 1.536,1.536 0 0 0 -1.492,-0.847 1.467,1.467 0 0 0 -1.366,0.722 3.34,3.34 0 0 0 -0.428,1.74 2.909,2.909 0 0 0 0.428,1.631 1.5,1.5 0 0 0 1.355,0.652 1.411,1.411 0 0 0 1.398,-0.772 z"
       id="path173" />
    <path
       d="m 222.05563,55.427344 a 1.579,1.579 0 0 1 1.391,-0.524 c 0.064,0 0.131,0 0.2,0.007 0.069,0.007 0.147,0.012 0.235,0.021 v 0.946 c -0.107,-0.012 -0.184,-0.02 -0.231,-0.023 -0.047,-0.003 -0.093,-0.005 -0.135,-0.005 q -0.468,0 -0.559,0.241 a 4.715,4.715 0 0 0 -0.092,1.228 h 1.017 v 0.819 h -1.017 v 5.3 h -1.031 v -5.3 h -0.862 v -0.819 h 0.862 v -0.959 a 1.826,1.826 0 0 1 0.222,-0.932 z"
       id="path175" />
    <path
       d="m 228.34763,55.001344 h 3.772 a 2.572,2.572 0 0 1 1.809,0.634 2.293,2.293 0 0 1 0.69,1.779 2.577,2.577 0 0 1 -0.616,1.716 2.323,2.323 0 0 1 -1.88,0.73 h -2.631 v 3.573 h -1.144 z m 4.43,1.153 a 2.461,2.461 0 0 0 -1.031,-0.178 h -2.255 v 2.924 h 2.255 a 2.141,2.141 0 0 0 1.238,-0.327 1.3,1.3 0 0 0 0.476,-1.155 1.274,1.274 0 0 0 -0.683,-1.264 z"
       id="path177" />
    <path
       d="m 236.97563,57.289344 v 4.077 a 1.772,1.772 0 0 0 0.145,0.769 1,1 0 0 0 0.995,0.55 1.407,1.407 0 0 0 1.423,-0.963 3.935,3.935 0 0 0 0.205,-1.416 v -3.017 h 1.032 v 6.144 h -0.971 l 0.011,-0.908 a 2.071,2.071 0 0 1 -0.488,0.594 2.116,2.116 0 0 1 -1.4,0.484 1.8,1.8 0 0 1 -1.752,-0.878 2.669,2.669 0 0 1 -0.252,-1.257 v -4.179 z"
       id="path179" />
    <path
       d="m 242.39463,54.987344 h 1 v 3.034 a 2.267,2.267 0 0 1 1.837,-0.9 2.4,2.4 0 0 1 1.867,0.793 3.373,3.373 0 0 1 0.717,2.335 4,4 0 0 1 -0.709,2.43 2.3,2.3 0 0 1 -1.964,0.967 2,2 0 0 1 -1.187,-0.341 2.817,2.817 0 0 1 -0.617,-0.646 v 0.775 h -0.947 z m 3.948,7.072 a 3.307,3.307 0 0 0 0.417,-1.766 2.9,2.9 0 0 0 -0.417,-1.614 1.374,1.374 0 0 0 -1.229,-0.641 1.717,1.717 0 0 0 -1.24,0.525 2.362,2.362 0 0 0 -0.532,1.73 3.833,3.833 0 0 0 0.219,1.414 1.51,1.51 0 0 0 1.524,1.02 1.382,1.382 0 0 0 1.258,-0.668 z"
       id="path181" />
    <path
       d="m 249.04263,54.987344 h 1.031 v 8.446 h -1.031 z"
       id="path183" />
    <path
       d="m 251.62563,56.159344 h 1.031 v -1.172 h -1.031 z m 0,7.273 h 1.031 v -6.114 h -1.031 z"
       id="path185" />
    <path
       d="m 258.28263,57.626344 a 2.419,2.419 0 0 1 0.784,1.74 h -1 a 1.856,1.856 0 0 0 -0.42,-0.949 1.32,1.32 0 0 0 -1.052,-0.379 1.453,1.453 0 0 0 -1.415,0.963 3.8,3.8 0 0 0 -0.277,1.542 2.9,2.9 0 0 0 0.391,1.554 1.52,1.52 0 0 0 2.252,0.237 2.151,2.151 0 0 0 0.521,-1.076 h 1 a 2.432,2.432 0 0 1 -2.626,2.359 2.355,2.355 0 0 1 -1.924,-0.88 3.363,3.363 0 0 1 -0.719,-2.2 3.7,3.7 0 0 1 0.788,-2.518 2.545,2.545 0 0 1 2,-0.9 2.684,2.684 0 0 1 1.697,0.507 z"
       id="path187" />
    <path
       d="m 264.25463,60.707344 a 2.381,2.381 0 0 0 0.326,1.167 2.124,2.124 0 0 0 1.928,0.839 3.262,3.262 0 0 0 1.127,-0.185 1.3,1.3 0 0 0 0.984,-1.281 1.125,1.125 0 0 0 -0.417,-0.987 4.143,4.143 0 0 0 -1.322,-0.5 l -1.106,-0.256 a 4.826,4.826 0 0 1 -1.533,-0.555 1.783,1.783 0 0 1 -0.778,-1.581 2.473,2.473 0 0 1 0.766,-1.868 3.021,3.021 0 0 1 2.169,-0.73 3.7,3.7 0 0 1 2.193,0.64 2.33,2.33 0 0 1 0.9,2.044 h -1.073 a 2.182,2.182 0 0 0 -0.352,-1.036 2.009,2.009 0 0 0 -1.7,-0.659 1.908,1.908 0 0 0 -1.393,0.426 1.355,1.355 0 0 0 -0.424,0.988 0.972,0.972 0 0 0 0.5,0.909 7.28,7.28 0 0 0 1.483,0.46 l 1.145,0.27 a 3.425,3.425 0 0 1 1.277,0.534 2.021,2.021 0 0 1 0.778,1.716 2.158,2.158 0 0 1 -0.994,2 4.357,4.357 0 0 1 -2.308,0.6 3.4,3.4 0 0 1 -2.4,-0.8 2.748,2.748 0 0 1 -0.85,-2.164 z"
       id="path189" />
    <path
       d="m 275.00463,57.459344 a 2.308,2.308 0 0 1 0.929,0.791 2.74,2.74 0 0 1 0.411,1.082 7.067,7.067 0 0 1 0.092,1.351 h -4.477 a 2.664,2.664 0 0 0 0.438,1.509 1.467,1.467 0 0 0 1.272,0.567 1.646,1.646 0 0 0 1.284,-0.529 1.807,1.807 0 0 0 0.381,-0.714 h 1.017 a 2.12,2.12 0 0 1 -0.267,0.751 2.754,2.754 0 0 1 -0.506,0.675 2.393,2.393 0 0 1 -1.157,0.616 3.5,3.5 0 0 1 -0.837,0.091 2.566,2.566 0 0 1 -1.934,-0.834 3.255,3.255 0 0 1 -0.793,-2.337 3.543,3.543 0 0 1 0.8,-2.4 2.628,2.628 0 0 1 2.088,-0.924 2.785,2.785 0 0 1 1.259,0.305 z m 0.373,2.4 a 2.712,2.712 0 0 0 -0.292,-1.074 1.486,1.486 0 0 0 -1.407,-0.748 1.552,1.552 0 0 0 -1.184,0.515 1.941,1.941 0 0 0 -0.507,1.307 z"
       id="path191" />
    <path
       d="m 277.77663,57.289344 h 0.975 v 1.055 a 2.333,2.333 0 0 1 0.594,-0.752 1.546,1.546 0 0 1 1.09,-0.444 c 0.019,0 0.052,0 0.1,0.006 l 0.236,0.022 v 1.083 a 1.444,1.444 0 0 0 -0.17,-0.022 c -0.052,0 -0.109,-0.006 -0.169,-0.006 a 1.481,1.481 0 0 0 -1.2,0.5 1.75,1.75 0 0 0 -0.42,1.156 v 3.538 h -1.031 z"
       id="path193" />
    <path
       d="m 282.15463,57.289344 1.639,5 1.709,-5 h 1.13 l -2.312,6.144 h -1.1 l -2.266,-6.144 z"
       id="path195" />
    <path
       d="m 287.53663,54.987344 h 1.031 v 1.172 h -1.031 z m 0,2.331 h 1.031 v 6.115 h -1.031 z"
       id="path197" />
    <path
       d="m 294.19263,57.626344 a 2.412,2.412 0 0 1 0.784,1.74 h -1 a 1.855,1.855 0 0 0 -0.419,-0.949 1.323,1.323 0 0 0 -1.053,-0.379 1.455,1.455 0 0 0 -1.415,0.963 3.818,3.818 0 0 0 -0.276,1.542 2.891,2.891 0 0 0 0.391,1.554 1.52,1.52 0 0 0 2.252,0.237 2.15,2.15 0 0 0 0.52,-1.076 h 1 a 2.429,2.429 0 0 1 -2.625,2.359 2.354,2.354 0 0 1 -1.924,-0.88 3.357,3.357 0 0 1 -0.719,-2.2 3.7,3.7 0 0 1 0.788,-2.518 2.546,2.546 0 0 1 2.005,-0.9 2.679,2.679 0 0 1 1.691,0.507 z"
       id="path199" />
    <path
       d="m 299.81563,57.459344 a 2.317,2.317 0 0 1 0.93,0.791 2.74,2.74 0 0 1 0.411,1.082 7.089,7.089 0 0 1 0.091,1.351 h -4.477 a 2.656,2.656 0 0 0 0.44,1.509 1.463,1.463 0 0 0 1.272,0.567 1.646,1.646 0 0 0 1.283,-0.529 1.807,1.807 0 0 0 0.381,-0.714 h 1.016 a 2.082,2.082 0 0 1 -0.267,0.751 2.706,2.706 0 0 1 -0.506,0.675 2.381,2.381 0 0 1 -1.156,0.616 3.5,3.5 0 0 1 -0.837,0.091 2.57,2.57 0 0 1 -1.935,-0.834 3.255,3.255 0 0 1 -0.793,-2.337 3.543,3.543 0 0 1 0.8,-2.4 2.627,2.627 0 0 1 2.088,-0.924 2.781,2.781 0 0 1 1.259,0.305 z m 0.373,2.4 a 2.7,2.7 0 0 0 -0.291,-1.074 1.487,1.487 0 0 0 -1.407,-0.748 1.554,1.554 0 0 0 -1.185,0.515 1.956,1.956 0 0 0 -0.507,1.307 z"
       id="path201" />
    <rect
       class="a"
       width="10.102"
       height="21.66"
       transform="translate(31.897 41.714)"
       id="rect203" />
    <path
       class="a"
       d="M55.256,46.364,53.8,43.6l-1.469,2.763a.387.387,0,0,1-.226.2.439.439,0,0,1-.439-.04l-1.337-.8.968,4.51a.385.385,0,0,1-.175.4.4.4,0,0,1-.443-.044l-1.963-2.168s-.511,1.121-.511,1.11a.463.463,0,0,1-.155.226.47.47,0,0,1-.426.072l-2.042-.49.665,2.588a.456.456,0,0,1-.226.567l-.64.316,4.083,3.265a.451.451,0,0,1,.127.232.444.444,0,0,1-.009.238l-.5,1.483,3.815-.682a.46.46,0,0,1,.544.459l-.149,3.835H54.31l-.165-3.824a.459.459,0,0,1,.489-.476l3.867.688-.488-1.455A.393.393,0,0,1,58,56.3a.432.432,0,0,1,.185-.272l4.024-3.216-.632-.309a.46.46,0,0,1-.251-.532L62,49.339l-2.048.49a.46.46,0,0,1-.573-.289h0l-.509-1.119s-1.756,2-1.947,2.154a.391.391,0,0,1-.468.049.36.36,0,0,1-.166-.408l.962-4.5-1.359.818a.454.454,0,0,1-.341.051.494.494,0,0,1-.3-.223"
       id="path205" />
    <rect
       class="a"
       width="10.1"
       height="21.66"
       transform="translate(65.587 41.714)"
       id="rect207" />
    <path
       d="m 98.948986,41.759344 h 6.130004 v 1.031 h -5.014 v 2.557 h 4.633 v 0.974 h -4.633 v 2.867 h 5.085 v 1 h -6.200004 z m 4.647004,-2.33 -1.536,1.666 h -0.795 l 1.054,-1.666 z"
       id="path209" />
    <path
       d="m 110.59299,44.379344 a 2.417,2.417 0 0 1 0.784,1.739 h -1 a 1.868,1.868 0 0 0 -0.42,-0.949 1.324,1.324 0 0 0 -1.053,-0.378 1.455,1.455 0 0 0 -1.415,0.963 3.816,3.816 0 0 0 -0.275,1.542 2.887,2.887 0 0 0 0.391,1.554 1.52,1.52 0 0 0 2.252,0.237 2.167,2.167 0 0 0 0.52,-1.076 h 1 a 2.432,2.432 0 0 1 -2.625,2.359 2.356,2.356 0 0 1 -1.925,-0.88 3.364,3.364 0 0 1 -0.718,-2.2 3.7,3.7 0 0 1 0.787,-2.518 2.546,2.546 0 0 1 2.005,-0.9 2.678,2.678 0 0 1 1.692,0.507 z"
       id="path211" />
    <path
       d="m 116.87599,44.659344 a 3.086,3.086 0 0 1 0.816,2.322 3.99,3.99 0 0 1 -0.719,2.447 2.594,2.594 0 0 1 -2.23,0.967 2.516,2.516 0 0 1 -2,-0.855 3.384,3.384 0 0 1 -0.741,-2.3 3.658,3.658 0 0 1 0.781,-2.459 2.62,2.62 0 0 1 2.1,-0.915 2.762,2.762 0 0 1 1.993,0.793 z m -0.636,4.07 a 3.881,3.881 0 0 0 0.378,-1.725 3.088,3.088 0 0 0 -0.273,-1.4 1.536,1.536 0 0 0 -1.492,-0.847 1.47,1.47 0 0 0 -1.367,0.721 3.355,3.355 0 0 0 -0.427,1.74 2.918,2.918 0 0 0 0.427,1.632 1.5,1.5 0 0 0 1.355,0.652 1.413,1.413 0 0 0 1.397,-0.77 z"
       id="path213" />
    <path
       d="m 118.98499,41.740344 h 1.031 v 8.446 h -1.031 z"
       id="path215" />
    <path
       d="m 125.36199,44.207344 a 2.324,2.324 0 0 1 0.929,0.792 2.736,2.736 0 0 1 0.411,1.081 7.185,7.185 0 0 1 0.091,1.352 h -4.477 a 2.658,2.658 0 0 0 0.439,1.508 1.463,1.463 0 0 0 1.272,0.568 1.64,1.64 0 0 0 1.283,-0.53 1.792,1.792 0 0 0 0.382,-0.713 h 1.017 a 2.151,2.151 0 0 1 -0.268,0.751 2.729,2.729 0 0 1 -0.506,0.675 2.394,2.394 0 0 1 -1.156,0.616 3.5,3.5 0 0 1 -0.838,0.091 2.567,2.567 0 0 1 -1.934,-0.834 3.256,3.256 0 0 1 -0.793,-2.337 3.544,3.544 0 0 1 0.8,-2.4 2.632,2.632 0 0 1 2.088,-0.923 2.788,2.788 0 0 1 1.26,0.303 z m 0.372,2.406 a 2.7,2.7 0 0 0 -0.291,-1.075 1.486,1.486 0 0 0 -1.407,-0.747 1.553,1.553 0 0 0 -1.185,0.514 1.949,1.949 0 0 0 -0.507,1.308 z"
       id="path217" />
    <path
       d="m 134.74199,44.224344 a 2.723,2.723 0 0 1 0.622,0.6 v -3.084 h 0.988 v 8.446 h -0.932 v -0.851 a 2.218,2.218 0 0 1 -0.847,0.813 2.428,2.428 0 0 1 -1.121,0.25 2.265,2.265 0 0 1 -1.764,-0.863 3.392,3.392 0 0 1 -0.745,-2.3 3.981,3.981 0 0 1 0.681,-2.325 2.224,2.224 0 0 1 1.945,-0.984 2.17,2.17 0 0 1 1.173,0.298 z m -2.3,4.616 a 1.44,1.44 0 0 0 1.326,0.668 1.39,1.39 0 0 0 1.165,-0.62 2.956,2.956 0 0 0 0.456,-1.776 2.666,2.666 0 0 0 -0.47,-1.732 1.46,1.46 0 0 0 -1.163,-0.561 1.527,1.527 0 0 0 -1.25,0.6 2.778,2.778 0 0 0 -0.478,1.763 3.087,3.087 0 0 0 0.417,1.658 z"
       id="path219" />
    <path
       d="m 141.69599,44.207344 a 2.324,2.324 0 0 1 0.929,0.792 2.737,2.737 0 0 1 0.412,1.081 7.185,7.185 0 0 1 0.091,1.352 h -4.478 a 2.658,2.658 0 0 0 0.44,1.508 1.461,1.461 0 0 0 1.272,0.568 1.642,1.642 0 0 0 1.283,-0.53 1.778,1.778 0 0 0 0.381,-0.713 h 1.017 a 2.111,2.111 0 0 1 -0.268,0.751 2.681,2.681 0 0 1 -0.506,0.675 2.389,2.389 0 0 1 -1.156,0.616 3.5,3.5 0 0 1 -0.837,0.091 2.57,2.57 0 0 1 -1.935,-0.834 3.26,3.26 0 0 1 -0.792,-2.337 3.544,3.544 0 0 1 0.8,-2.4 2.63,2.63 0 0 1 2.088,-0.923 2.781,2.781 0 0 1 1.259,0.303 z m 0.372,2.406 a 2.682,2.682 0 0 0 -0.29,-1.075 1.488,1.488 0 0 0 -1.407,-0.747 1.555,1.555 0 0 0 -1.186,0.514 1.963,1.963 0 0 0 -0.507,1.308 z"
       id="path221" />
    <path
       d="m 147.72899,41.740344 h 1.031 v 8.446 h -1.031 z"
       id="path223" />
    <path
       d="m 153.59499,46.464344 a 0.56,0.56 0 0 0 0.476,-0.3 0.893,0.893 0 0 0 0.069,-0.393 0.833,0.833 0 0 0 -0.376,-0.761 2.021,2.021 0 0 0 -1.073,-0.236 1.367,1.367 0 0 0 -1.144,0.432 1.417,1.417 0 0 0 -0.246,0.712 h -0.961 a 1.782,1.782 0 0 1 0.736,-1.587 3,3 0 0 1 1.64,-0.447 3.264,3.264 0 0 1 1.756,0.422 1.416,1.416 0 0 1 0.67,1.289 v 3.527 a 0.455,0.455 0 0 0 0.066,0.258 0.318,0.318 0 0 0 0.276,0.1 1.479,1.479 0 0 0 0.154,-0.009 c 0.057,-0.005 0.118,-0.014 0.182,-0.026 v 0.765 a 2.751,2.751 0 0 1 -0.366,0.086 2.571,2.571 0 0 1 -0.342,0.017 0.845,0.845 0 0 1 -0.772,-0.379 1.457,1.457 0 0 1 -0.177,-0.569 2.627,2.627 0 0 1 -0.907,0.726 2.778,2.778 0 0 1 -1.3,0.307 1.934,1.934 0 0 1 -1.4,-0.52 1.726,1.726 0 0 1 -0.542,-1.3 1.678,1.678 0 0 1 0.534,-1.328 2.543,2.543 0 0 1 1.4,-0.58 z m -2.179,2.787 a 1.215,1.215 0 0 0 0.776,0.257 2.376,2.376 0 0 0 1.057,-0.251 1.415,1.415 0 0 0 0.862,-1.368 v -0.83 a 1.693,1.693 0 0 1 -0.486,0.211 3.632,3.632 0 0 1 -0.584,0.116 l -0.625,0.076 a 2.409,2.409 0 0 0 -0.845,0.23 0.91,0.91 0 0 0 -0.482,0.857 0.841,0.841 0 0 0 0.327,0.702 z"
       id="path225" />
    <path
       d="m 160.58899,42.180344 a 1.578,1.578 0 0 1 1.387,-0.521 c 0.065,0 0.132,0 0.2,0.007 l 0.233,0.022 v 0.946 c -0.106,-0.012 -0.183,-0.02 -0.231,-0.023 -0.048,-0.003 -0.092,-0.005 -0.134,-0.005 q -0.468,0 -0.56,0.241 a 4.733,4.733 0 0 0 -0.091,1.228 h 1.016 v 0.819 h -1.016 v 5.3 h -1.027 v -5.3 h -0.862 v -0.819 h 0.862 v -0.957 a 1.82,1.82 0 0 1 0.223,-0.938 z"
       id="path227" />
    <path
       d="m 167.82899,44.659344 a 3.086,3.086 0 0 1 0.816,2.322 3.984,3.984 0 0 1 -0.72,2.447 2.591,2.591 0 0 1 -2.229,0.967 2.517,2.517 0 0 1 -2,-0.855 3.383,3.383 0 0 1 -0.74,-2.3 3.658,3.658 0 0 1 0.781,-2.459 2.618,2.618 0 0 1 2.1,-0.915 2.763,2.763 0 0 1 1.992,0.793 z m -0.636,4.07 a 3.882,3.882 0 0 0 0.378,-1.725 3.087,3.087 0 0 0 -0.273,-1.4 1.536,1.536 0 0 0 -1.492,-0.847 1.472,1.472 0 0 0 -1.368,0.721 3.364,3.364 0 0 0 -0.426,1.74 2.926,2.926 0 0 0 0.426,1.632 1.5,1.5 0 0 0 1.356,0.652 1.413,1.413 0 0 0 1.399,-0.77 z"
       id="path229" />
    <path
       d="m 169.91099,44.042344 h 0.975 v 0.872 a 2.759,2.759 0 0 1 0.926,-0.777 2.476,2.476 0 0 1 1.088,-0.236 1.8,1.8 0 0 1 1.772,0.913 3.23,3.23 0 0 1 0.253,1.429 v 3.943 h -1.031 v -3.872 a 2.077,2.077 0 0 0 -0.168,-0.907 1.021,1.021 0 0 0 -1.007,-0.574 2.1,2.1 0 0 0 -0.608,0.074 1.576,1.576 0 0 0 -0.752,0.5 1.517,1.517 0 0 0 -0.339,0.629 4.2,4.2 0 0 0 -0.078,0.927 v 3.218 h -1.031 z"
       id="path231" />
    <path
       d="m 180.49299,44.379344 a 2.425,2.425 0 0 1 0.784,1.739 h -1 a 1.868,1.868 0 0 0 -0.42,-0.949 1.326,1.326 0 0 0 -1.053,-0.378 1.454,1.454 0 0 0 -1.415,0.963 3.815,3.815 0 0 0 -0.276,1.542 2.9,2.9 0 0 0 0.391,1.554 1.52,1.52 0 0 0 2.252,0.237 2.159,2.159 0 0 0 0.521,-1.076 h 1 a 2.434,2.434 0 0 1 -2.626,2.359 2.357,2.357 0 0 1 -1.925,-0.88 3.37,3.37 0 0 1 -0.718,-2.2 3.7,3.7 0 0 1 0.788,-2.518 2.543,2.543 0 0 1 2.005,-0.9 2.678,2.678 0 0 1 1.692,0.507 z"
       id="path233" />
    <path
       d="m 182.51899,42.347344 h 1.031 v 1.695 h 0.988 v 0.862 h -0.988 v 3.974 a 0.426,0.426 0 0 0 0.22,0.426 0.943,0.943 0 0 0 0.4,0.063 c 0.049,0 0.1,0 0.161,0 0.061,0 0.126,-0.012 0.2,-0.024 v 0.847 a 2.3,2.3 0 0 1 -0.369,0.076 3.548,3.548 0 0 1 -0.414,0.023 1.119,1.119 0 0 1 -0.979,-0.369 1.634,1.634 0 0 1 -0.257,-0.958 v -4.058 h -0.834 v -0.862 h 0.834 z"
       id="path235" />
    <path
       d="m 185.58599,41.740344 h 1.031 v 1.172 h -1.031 z m 0,2.331 h 1.031 v 6.115 h -1.031 z"
       id="path237" />
    <path
       d="m 192.64899,44.659344 a 3.086,3.086 0 0 1 0.816,2.322 3.99,3.99 0 0 1 -0.719,2.447 2.6,2.6 0 0 1 -2.23,0.967 2.516,2.516 0 0 1 -2,-0.855 3.384,3.384 0 0 1 -0.741,-2.3 3.658,3.658 0 0 1 0.781,-2.459 2.62,2.62 0 0 1 2.1,-0.915 2.763,2.763 0 0 1 1.993,0.793 z m -0.637,4.07 a 3.868,3.868 0 0 0 0.379,-1.725 3.087,3.087 0 0 0 -0.273,-1.4 1.536,1.536 0 0 0 -1.492,-0.847 1.469,1.469 0 0 0 -1.367,0.721 3.355,3.355 0 0 0 -0.427,1.74 2.918,2.918 0 0 0 0.427,1.632 1.5,1.5 0 0 0 1.355,0.652 1.41,1.41 0 0 0 1.398,-0.77 z"
       id="path239" />
    <path
       d="m 194.73099,44.042344 h 0.975 v 0.872 a 2.751,2.751 0 0 1 0.927,-0.777 2.468,2.468 0 0 1 1.087,-0.236 1.794,1.794 0 0 1 1.772,0.913 3.23,3.23 0 0 1 0.253,1.429 v 3.943 h -1.031 v -3.872 a 2.062,2.062 0 0 0 -0.168,-0.907 1.019,1.019 0 0 0 -1.007,-0.574 2.088,2.088 0 0 0 -0.607,0.074 1.574,1.574 0 0 0 -0.753,0.5 1.514,1.514 0 0 0 -0.338,0.629 4.19,4.19 0 0 0 -0.079,0.927 v 3.218 h -1.031 z"
       id="path241" />
    <path
       d="m 98.623986,57.289344 h 1 v 0.794 a 2.522,2.522 0 0 1 0.680004,-0.638 2.214,2.214 0 0 1 1.231,-0.339 2.316,2.316 0 0 1 1.779,0.8 3.282,3.282 0 0 1 0.731,2.29 3.509,3.509 0 0 1 -1.054,2.873 2.381,2.381 0 0 1 -1.554,0.546 2.134,2.134 0 0 1 -1.168,-0.3 2.643,2.643 0 0 1 -0.617004,-0.584 v 3.115 h -1.031 z m 3.885004,4.828 a 2.916,2.916 0 0 0 0.48,-1.824 3.444,3.444 0 0 0 -0.212,-1.273 1.552,1.552 0 0 0 -2.938004,0.058 4.332,4.332 0 0 0 -0.212,1.469 3.152,3.152 0 0 0 0.212,1.221 1.554,1.554 0 0 0 2.670004,0.349 z"
       id="path243" />
    <path
       d="m 106.27599,57.259344 v 4.077 a 1.773,1.773 0 0 0 0.145,0.769 1,1 0 0 0 0.995,0.549 1.406,1.406 0 0 0 1.423,-0.963 3.947,3.947 0 0 0 0.205,-1.415 v -3.017 h 1.032 v 6.144 h -0.974 l 0.011,-0.908 a 2.087,2.087 0 0 1 -0.488,0.594 2.117,2.117 0 0 1 -1.4,0.484 1.8,1.8 0 0 1 -1.752,-0.878 2.672,2.672 0 0 1 -0.252,-1.257 v -4.179 z"
       id="path245" />
    <path
       d="m 111.69399,54.959344 h 1 v 3.034 a 2.267,2.267 0 0 1 1.836,-0.9 2.4,2.4 0 0 1 1.868,0.792 3.379,3.379 0 0 1 0.717,2.335 4,4 0 0 1 -0.709,2.43 2.3,2.3 0 0 1 -1.965,0.968 2,2 0 0 1 -1.187,-0.341 2.839,2.839 0 0 1 -0.617,-0.646 v 0.775 h -0.946 z m 3.947,7.072 a 3.307,3.307 0 0 0 0.417,-1.766 2.9,2.9 0 0 0 -0.417,-1.614 1.371,1.371 0 0 0 -1.228,-0.641 1.711,1.711 0 0 0 -1.24,0.525 2.362,2.362 0 0 0 -0.533,1.73 3.844,3.844 0 0 0 0.219,1.413 1.51,1.51 0 0 0 1.525,1.021 1.384,1.384 0 0 0 1.257,-0.668 z"
       id="path247" />
    <path
       d="m 118.34199,54.959344 h 1.034 v 8.446 h -1.031 z"
       id="path249" />
    <path
       d="m 120.92499,54.959344 h 1.031 v 1.172 h -1.031 z m 0,2.33 h 1.031 v 6.116 h -1.031 z"
       id="path251" />
    <path
       d="m 126.99599,57.507344 a 2.274,2.274 0 0 1 0.55,0.612 v -0.86 h 0.975 v 8.587 h -1.031 v -3.13 a 1.85,1.85 0 0 1 -0.714,0.657 2.386,2.386 0 0 1 -1.137,0.244 2.423,2.423 0 0 1 -1.754,-0.771 3.184,3.184 0 0 1 -0.774,-2.348 3.883,3.883 0 0 1 0.725,-2.428 2.257,2.257 0 0 1 1.877,-0.95 2.093,2.093 0 0 1 1.283,0.387 z m -2.588,4.26 a 1.42,1.42 0 0 0 1.416,0.96 1.481,1.481 0 0 0 1.485,-1.012 3.9,3.9 0 0 0 0.223,-1.427 3.2,3.2 0 0 0 -0.246,-1.335 1.491,1.491 0 0 0 -1.473,-0.915 1.443,1.443 0 0 0 -1.15,0.584 2.819,2.819 0 0 0 -0.478,1.8 3.527,3.527 0 0 0 0.223,1.345 z"
       id="path253" />
    <path
       d="m 131.10099,57.259344 v 4.077 a 1.772,1.772 0 0 0 0.145,0.769 1,1 0 0 0 0.995,0.549 1.406,1.406 0 0 0 1.423,-0.963 3.947,3.947 0 0 0 0.205,-1.415 v -3.017 h 1.031 v 6.144 h -0.974 l 0.011,-0.908 a 2.088,2.088 0 0 1 -0.488,0.594 2.117,2.117 0 0 1 -1.4,0.484 1.8,1.8 0 0 1 -1.752,-0.878 2.672,2.672 0 0 1 -0.252,-1.257 v -4.179 z"
       id="path255" />
    <path
       d="m 140.39899,57.426344 a 2.317,2.317 0 0 1 0.929,0.792 2.743,2.743 0 0 1 0.412,1.081 7.108,7.108 0 0 1 0.091,1.352 h -4.477 a 2.664,2.664 0 0 0 0.439,1.508 1.465,1.465 0 0 0 1.272,0.567 1.645,1.645 0 0 0 1.284,-0.53 1.789,1.789 0 0 0 0.38,-0.713 h 1.017 a 2.111,2.111 0 0 1 -0.268,0.751 2.679,2.679 0 0 1 -0.505,0.675 2.4,2.4 0 0 1 -1.157,0.616 3.492,3.492 0 0 1 -0.836,0.091 2.568,2.568 0 0 1 -1.935,-0.834 3.255,3.255 0 0 1 -0.793,-2.337 3.543,3.543 0 0 1 0.8,-2.4 2.628,2.628 0 0 1 2.087,-0.923 2.781,2.781 0 0 1 1.26,0.304 z m 0.372,2.406 a 2.681,2.681 0 0 0 -0.29,-1.074 1.488,1.488 0 0 0 -1.407,-0.748 1.56,1.56 0 0 0 -1.186,0.514 1.96,1.96 0 0 0 -0.506,1.308 z"
       id="path257" />
    <path
       d="m 149.77599,57.443344 a 2.786,2.786 0 0 1 0.621,0.6 v -3.084 h 0.989 v 8.446 h -0.932 v -0.846 a 2.22,2.22 0 0 1 -0.849,0.812 2.418,2.418 0 0 1 -1.12,0.25 2.262,2.262 0 0 1 -1.764,-0.863 3.388,3.388 0 0 1 -0.745,-2.3 3.984,3.984 0 0 1 0.681,-2.326 2.226,2.226 0 0 1 1.946,-0.984 2.184,2.184 0 0 1 1.173,0.295 z m -2.3,4.616 a 1.443,1.443 0 0 0 1.327,0.668 1.392,1.392 0 0 0 1.173,-0.619 2.961,2.961 0 0 0 0.456,-1.777 2.664,2.664 0 0 0 -0.47,-1.731 1.463,1.463 0 0 0 -1.163,-0.562 1.528,1.528 0 0 0 -1.25,0.6 2.78,2.78 0 0 0 -0.478,1.763 3.1,3.1 0 0 0 0.411,1.658 z"
       id="path259" />
    <path
       d="m 153.97099,57.259344 v 4.077 a 1.773,1.773 0 0 0 0.144,0.769 1,1 0 0 0 1,0.549 1.407,1.407 0 0 0 1.423,-0.963 3.948,3.948 0 0 0 0.2,-1.415 v -3.017 h 1.031 v 6.144 h -0.974 l 0.011,-0.908 a 2.091,2.091 0 0 1 -0.489,0.594 2.117,2.117 0 0 1 -1.4,0.484 1.8,1.8 0 0 1 -1.752,-0.878 2.672,2.672 0 0 1 -0.252,-1.257 v -4.179 z"
       id="path261" />
    <path
       d="m 168.83299,55.589344 a 2.988,2.988 0 0 1 0.968,1.912 h -1.116 a 2.12,2.12 0 0 0 -2.3,-1.765 2.481,2.481 0 0 0 -1.976,0.875 4.035,4.035 0 0 0 -0.753,2.682 3.945,3.945 0 0 0 0.678,2.4 2.349,2.349 0 0 0 2.023,0.921 2.128,2.128 0 0 0 1.886,-0.965 3.687,3.687 0 0 0 0.512,-1.337 h 1.121 a 3.835,3.835 0 0 1 -0.973,2.234 3.436,3.436 0 0 1 -2.671,1.085 3.5,3.5 0 0 1 -2.433,-0.89 5.531,5.531 0 0 1 -0.321,-6.695 3.539,3.539 0 0 1 2.906,-1.3 3.389,3.389 0 0 1 2.449,0.843 z"
       id="path263" />
    <path
       d="m 174.50799,59.683344 a 0.559,0.559 0 0 0 0.476,-0.3 0.9,0.9 0 0 0 0.068,-0.393 0.833,0.833 0 0 0 -0.375,-0.761 2.022,2.022 0 0 0 -1.072,-0.236 1.368,1.368 0 0 0 -1.145,0.432 1.42,1.42 0 0 0 -0.246,0.712 h -0.961 a 1.79,1.79 0 0 1 0.736,-1.588 3.008,3.008 0 0 1 1.64,-0.446 3.279,3.279 0 0 1 1.757,0.422 1.419,1.419 0 0 1 0.669,1.29 v 3.527 a 0.449,0.449 0 0 0 0.066,0.257 0.315,0.315 0 0 0 0.276,0.1 c 0.046,0 0.1,0 0.154,-0.008 0.054,-0.008 0.118,-0.015 0.182,-0.027 v 0.765 a 2.744,2.744 0 0 1 -0.365,0.086 2.594,2.594 0 0 1 -0.344,0.017 0.844,0.844 0 0 1 -0.771,-0.379 1.463,1.463 0 0 1 -0.177,-0.568 2.651,2.651 0 0 1 -0.906,0.725 2.781,2.781 0 0 1 -1.3,0.307 1.939,1.939 0 0 1 -1.4,-0.519 1.73,1.73 0 0 1 -0.542,-1.3 1.676,1.676 0 0 1 0.534,-1.327 2.528,2.528 0 0 1 1.4,-0.58 z m -2.179,2.787 a 1.221,1.221 0 0 0 0.776,0.257 2.383,2.383 0 0 0 1.058,-0.251 1.417,1.417 0 0 0 0.861,-1.368 v -0.83 a 1.693,1.693 0 0 1 -0.486,0.211 3.739,3.739 0 0 1 -0.585,0.117 l -0.623,0.075 a 2.4,2.4 0 0 0 -0.845,0.23 0.909,0.909 0 0 0 -0.483,0.857 0.844,0.844 0 0 0 0.327,0.702 z"
       id="path265" />
    <path
       d="m 177.75999,57.259344 h 0.974 v 0.871 a 2.763,2.763 0 0 1 0.927,-0.775 2.463,2.463 0 0 1 1.088,-0.237 1.791,1.791 0 0 1 1.771,0.913 3.228,3.228 0 0 1 0.256,1.428 v 3.943 h -1.031 v -3.869 a 2.08,2.08 0 0 0 -0.168,-0.907 1.02,1.02 0 0 0 -1.007,-0.574 2.091,2.091 0 0 0 -0.608,0.075 1.565,1.565 0 0 0 -0.752,0.505 1.522,1.522 0 0 0 -0.339,0.629 4.191,4.191 0 0 0 -0.078,0.926 v 3.218 h -1.031 z"
       id="path267" />
    <path
       d="m 187.57599,59.683344 a 0.559,0.559 0 0 0 0.476,-0.3 0.91,0.91 0 0 0 0.068,-0.393 0.832,0.832 0 0 0 -0.374,-0.761 2.028,2.028 0 0 0 -1.073,-0.236 1.368,1.368 0 0 0 -1.145,0.432 1.411,1.411 0 0 0 -0.247,0.712 h -0.96 a 1.79,1.79 0 0 1 0.736,-1.588 3.009,3.009 0 0 1 1.639,-0.446 3.278,3.278 0 0 1 1.758,0.422 1.419,1.419 0 0 1 0.669,1.29 v 3.527 a 0.449,0.449 0 0 0 0.066,0.257 c 0.044,0.065 0.135,0.1 0.277,0.1 0.045,0 0.1,0 0.153,-0.008 0.053,-0.008 0.118,-0.015 0.182,-0.027 v 0.765 a 2.78,2.78 0 0 1 -0.365,0.086 2.577,2.577 0 0 1 -0.343,0.017 0.841,0.841 0 0 1 -0.771,-0.379 1.479,1.479 0 0 1 -0.178,-0.568 2.646,2.646 0 0 1 -0.907,0.725 2.772,2.772 0 0 1 -1.3,0.307 1.938,1.938 0 0 1 -1.4,-0.519 1.73,1.73 0 0 1 -0.542,-1.3 1.676,1.676 0 0 1 0.534,-1.327 2.531,2.531 0 0 1 1.4,-0.58 z m -2.179,2.787 a 1.225,1.225 0 0 0 0.776,0.257 2.373,2.373 0 0 0 1.057,-0.251 1.416,1.416 0 0 0 0.862,-1.368 v -0.83 a 1.681,1.681 0 0 1 -0.486,0.211 3.726,3.726 0 0 1 -0.584,0.117 l -0.624,0.075 a 2.409,2.409 0 0 0 -0.846,0.23 0.91,0.91 0 0 0 -0.482,0.857 0.844,0.844 0 0 0 0.329,0.702 z"
       id="path269" />
    <path
       d="m 194.20599,57.443344 a 2.788,2.788 0 0 1 0.621,0.6 v -3.084 h 0.988 v 8.446 h -0.932 v -0.846 a 2.209,2.209 0 0 1 -0.847,0.812 2.425,2.425 0 0 1 -1.121,0.25 2.258,2.258 0 0 1 -1.763,-0.863 3.388,3.388 0 0 1 -0.746,-2.3 3.984,3.984 0 0 1 0.681,-2.326 2.226,2.226 0 0 1 1.945,-0.984 2.183,2.183 0 0 1 1.174,0.295 z m -2.3,4.616 a 1.443,1.443 0 0 0 1.327,0.668 1.39,1.39 0 0 0 1.165,-0.619 2.962,2.962 0 0 0 0.456,-1.777 2.653,2.653 0 0 0 -0.471,-1.731 1.459,1.459 0 0 0 -1.161,-0.562 1.525,1.525 0 0 0 -1.25,0.6 2.773,2.773 0 0 0 -0.48,1.763 3.1,3.1 0 0 0 0.415,1.658 z"
       id="path271" />
    <path
       d="m 200.64699,59.683344 a 0.559,0.559 0 0 0 0.477,-0.3 0.91,0.91 0 0 0 0.068,-0.393 0.832,0.832 0 0 0 -0.374,-0.761 2.03,2.03 0 0 0 -1.074,-0.236 1.37,1.37 0 0 0 -1.145,0.432 1.42,1.42 0 0 0 -0.246,0.712 h -0.96 a 1.79,1.79 0 0 1 0.736,-1.588 3.007,3.007 0 0 1 1.639,-0.446 3.28,3.28 0 0 1 1.758,0.422 1.419,1.419 0 0 1 0.669,1.29 v 3.527 a 0.449,0.449 0 0 0 0.066,0.257 c 0.043,0.065 0.135,0.1 0.276,0.1 0.045,0 0.1,0 0.154,-0.008 0.054,-0.008 0.117,-0.015 0.182,-0.027 v 0.765 a 2.751,2.751 0 0 1 -0.366,0.086 2.561,2.561 0 0 1 -0.342,0.017 0.844,0.844 0 0 1 -0.772,-0.379 1.463,1.463 0 0 1 -0.177,-0.568 2.646,2.646 0 0 1 -0.907,0.725 2.775,2.775 0 0 1 -1.3,0.307 1.938,1.938 0 0 1 -1.4,-0.519 1.73,1.73 0 0 1 -0.542,-1.3 1.676,1.676 0 0 1 0.534,-1.327 2.531,2.531 0 0 1 1.4,-0.58 z m -2.178,2.787 a 1.223,1.223 0 0 0 0.776,0.257 2.376,2.376 0 0 0 1.057,-0.251 1.416,1.416 0 0 0 0.862,-1.368 v -0.83 a 1.688,1.688 0 0 1 -0.487,0.211 3.693,3.693 0 0 1 -0.583,0.117 l -0.624,0.075 a 2.409,2.409 0 0 0 -0.846,0.23 0.911,0.911 0 0 0 -0.483,0.857 0.845,0.845 0 0 0 0.328,0.702 z"
       id="path273" />
  </g>
</svg>
