<svg xmlns="http://www.w3.org/2000/svg" width="43.911" height="43.911" viewBox="0 0 43.911 43.911"><defs><style>.a{fill:#ffba59;}</style></defs><path class="a" d="M21.955,0A21.955,21.955,0,1,0,43.911,21.955,21.943,21.943,0,0,0,21.955,0Zm0,40.48A18.525,18.525,0,1,1,40.48,21.955,18.514,18.514,0,0,1,21.955,40.48Z"/><g transform="translate(20.24 11.053)"><path class="a" d="M237.715,128.877A1.715,1.715,0,0,0,236,130.592v11.046a1.715,1.715,0,0,0,3.431,0V130.592A1.715,1.715,0,0,0,237.715,128.877Z" transform="translate(-236 -128.877)"/></g><g transform="translate(19.64 27.63)"><circle class="a" cx="2.316" cy="2.316" r="2.316"/></g></svg>