<?xml version="1.0" encoding="UTF-8" standalone="no"?>
<svg
   width="45"
   height="45"
   viewBox="0 0 45 45"
   version="1.1"
   id="svg5998"
   sodipodi:docname="instruction-text-icon.svg"
   inkscape:version="1.1.1 (3bf5ae0d25, 2021-09-20)"
   xmlns:inkscape="http://www.inkscape.org/namespaces/inkscape"
   xmlns:sodipodi="http://sodipodi.sourceforge.net/DTD/sodipodi-0.dtd"
   xmlns="http://www.w3.org/2000/svg"
   xmlns:svg="http://www.w3.org/2000/svg">
  <sodipodi:namedview
     id="namedview6000"
     pagecolor="#ffffff"
     bordercolor="#666666"
     borderopacity="1.0"
     inkscape:pageshadow="2"
     inkscape:pageopacity="0.0"
     inkscape:pagecheckerboard="0"
     showgrid="false"
     inkscape:zoom="17.311111"
     inkscape:cx="22.5"
     inkscape:cy="22.5"
     inkscape:window-width="1920"
     inkscape:window-height="1001"
     inkscape:window-x="-9"
     inkscape:window-y="-9"
     inkscape:window-maximized="1"
     inkscape:current-layer="svg5998" />
  <defs
     id="defs5988">
    <style
       id="style5986">.a{fill:#edeef1;}.b{fill:#3f2a56;fill-rule:evenodd;}</style>
  </defs>
  <g
     transform="translate(-282 -867)"
     id="g5996">
    <circle
       class="a"
       cx="22.5"
       cy="22.5"
       r="22.5"
       transform="translate(282 867)"
       id="circle5990" />
    <g
       transform="translate(271.225 864.898)"
       id="g5994">
      <path
         class="b"
         d="M31.194,9.038A1.7,1.7,0,0,1,32.9,10.744V23.37c0,.038.038.114.038.152.038.038.076.038.152.038.038,0,.114-.038.152-.038.038-.038.038-.076.038-.152V16.7a1.706,1.706,0,1,1,3.412,0v7.242c0,.038.038.114.038.152.038.038.076.038.152.038.038,0,.114-.038.152-.038.038-.038.038-.076.038-.152V18.1a1.724,1.724,0,0,1,1.706-1.706A1.7,1.7,0,0,1,40.484,18.1v6.256c0,.038.038.114.038.152.038.038.076.038.152.038.038,0,.114-.038.152-.038.038-.038.038-.076.038-.152V19.73a1.706,1.706,0,1,1,3.412,0V30.574h0c0,.569,0,4.588-2.009,7.09a7.883,7.883,0,0,1-6.1,2.5c-4.019,0-5.308-.72-6.559-1.934s-2.2-3.867-3.564-7.052c-.948-2.2-1.517-3-3.526-6.749h0a2.81,2.81,0,0,1-.227-1.327c.3-1.4,1.934-1.024,3.147-.076a21.8,21.8,0,0,1,3.791,4.664.187.187,0,0,0,.341-.114v-16.8a1.6,1.6,0,0,1,1.63-1.744Z"
         transform="translate(0)"
         id="path5992" />
    </g>
  </g>
  <path
     style="fill:#4f5b73;fill-opacity:1;stroke-width:0.0577664"
     d="m 24.49294,38.005539 c -2.458495,-0.08297 -3.779554,-0.435431 -4.956702,-1.322438 -1.29453,-0.975457 -1.816369,-1.868698 -3.679347,-6.297992 -1.073328,-2.551873 -1.11945,-2.644973 -3.144229,-6.346832 -0.590558,-1.079704 -1.025182,-1.942677 -1.075289,-2.13505 -0.336281,-1.291069 0.327943,-2.03402 1.533359,-1.715102 0.507859,0.134365 1.130216,0.482686 1.577904,0.883122 1.127563,1.008552 2.513481,2.695469 3.511176,4.273747 0.227723,0.360242 0.358368,0.436055 0.502704,0.29172 0.05329,-0.05329 0.06961,-2.080369 0.07059,-8.766046 0.0012,-8.3845187 0.0052,-8.7053063 0.109786,-8.9357068 0.476155,-1.0486004 1.811208,-1.2867362 2.643933,-0.4716031 0.133183,0.1303691 0.302149,0.369578 0.375481,0.5315752 l 0.133331,0.2945404 0.01611,6.5552593 c 0.0093,3.772407 0.03813,6.57728 0.06798,6.607131 0.02853,0.02853 0.118014,0.03527 0.198853,0.01498 l 0.146981,-0.03689 0.01611,-3.624157 0.01611,-3.624157 0.131696,-0.267301 c 0.29262,-0.593926 0.778003,-0.91913 1.435997,-0.962108 0.351456,-0.02296 0.458113,-0.0059 0.72208,0.115432 0.418579,0.192408 0.629404,0.381926 0.832271,0.748159 l 0.170639,0.308052 0.03044,3.956996 c 0.01674,2.176348 0.03624,3.963495 0.04332,3.971438 0.04199,0.04708 0.297657,0.0023 0.350519,-0.06141 0.04331,-0.05219 0.06805,-1.075014 0.07928,-3.278241 0.01607,-3.152048 0.01828,-3.20602 0.140642,-3.433453 0.670709,-1.246661 2.356262,-1.250648 3.012245,-0.0071 l 0.156124,0.295957 0.02888,3.437099 0.02888,3.437099 h 0.173299 0.173299 l 0.02888,-2.599487 c 0.02583,-2.324803 0.03969,-2.623432 0.1312,-2.826098 0.505492,-1.119567 1.899416,-1.407086 2.741105,-0.565396 0.111397,0.111397 0.264298,0.33517 0.339779,0.497274 l 0.137237,0.294734 5.77e-4,6.152472 c 6.13e-4,6.649169 -0.0065,6.835547 -0.315791,8.300519 -0.192639,0.91239 -0.434646,1.637635 -0.808482,2.422859 -0.40473,0.850113 -0.668307,1.2261 -1.250743,1.784157 -1.203873,1.153482 -2.960207,1.962851 -4.513902,2.080137 -0.229879,0.01735 -0.508945,0.03886 -0.620145,0.0478 -0.1112,0.0089 -0.761072,-0.0026 -1.444159,-0.02567 z"
     id="path6891" />
</svg>
